<svg id="Layer_1" data-name="Layer 1" xmlns="http://www.w3.org/2000/svg" xmlns:xlink="http://www.w3.org/1999/xlink" viewBox="0 0 200 200"><defs><style>.cls-1{fill:url(#marvelous_cranes);}.cls-2{fill:url(#marvelous_cranes-2);}</style><linearGradient id="marvelous_cranes" x1="29.32167" y1="170.67833" x2="170.67833" y2="29.32167" gradientUnits="userSpaceOnUse"><stop offset="0" stop-color="#f83600"/><stop offset="1" stop-color="#f9d423"/></linearGradient><linearGradient id="marvelous_cranes-2" x1="73.70625" y1="126.29375" x2="126.29375" y2="73.70625" xlink:href="#marvelous_cranes"/></defs><path class="cls-1" d="M100,0A100,100,0,1,0,200,100,100.11066,100.11066,0,0,0,100,0Zm0,187.5A87.5,87.5,0,1,1,187.5,100,87.59633,87.59633,0,0,1,100,187.5Z"/><path class="cls-2" d="M143.75,93.75h-37.5V56.25a6.25,6.25,0,0,0-12.5,0v37.5H56.25a6.25,6.25,0,0,0,0,12.5h37.5v37.5a6.25,6.25,0,0,0,12.5,0v-37.5h37.5a6.25,6.25,0,0,0,0-12.5Z"/></svg>