<svg id="Layer_1" data-name="Layer 1" xmlns="http://www.w3.org/2000/svg" xmlns:xlink="http://www.w3.org/1999/xlink" viewBox="0 0 199.06323 156.67712"><defs><style>.cls-1{fill:url(#marvelous_cranes);}.cls-2{fill:url(#marvelous_cranes-2);}.cls-3{fill:url(#marvelous_cranes-3);}</style><linearGradient id="marvelous_cranes" x1="22.13035" y1="186.76315" x2="177.86965" y2="31.02384" gradientUnits="userSpaceOnUse"><stop offset="0" stop-color="#f83600"/><stop offset="1" stop-color="#f9d423"/></linearGradient><linearGradient id="marvelous_cranes-2" x1="67.07509" y1="141.81844" x2="132.92491" y2="75.96861" xlink:href="#marvelous_cranes"/><linearGradient id="marvelous_cranes-3" x1="160.33894" y1="56.32206" x2="173.45147" y2="43.20953" xlink:href="#marvelous_cranes"/></defs><path class="cls-1" d="M192.90875,46.07129a21.40212,21.40212,0,0,0-15.70556-6.6228H145.79211V39.07a16.98931,16.98931,0,0,0-5.10907-12.2995,17.31314,17.31314,0,0,0-12.2995-5.10907H71.61646A17.44456,17.44456,0,0,0,54.01868,39.07v.37848H22.79675a21.402,21.402,0,0,0-15.7055,6.6228A22.49629,22.49629,0,0,0,.46838,61.77686v94.23327A21.402,21.402,0,0,0,7.09125,171.7157a22.49621,22.49621,0,0,0,15.70556,6.62286H177.20319a21.40194,21.40194,0,0,0,15.70556-6.62286,22.49618,22.49618,0,0,0,6.62287-15.70557V61.77686A21.40214,21.40214,0,0,0,192.90875,46.07129ZM189.692,156.01013h-.18921a12.27492,12.27492,0,0,1-12.29956,12.29956H22.79681a12.27492,12.27492,0,0,1-12.29956-12.29956V61.77686A12.275,12.275,0,0,1,22.79681,49.47729H59.31689A5.08781,5.08781,0,0,0,64.426,44.36823V38.8808a7.12293,7.12293,0,0,1,7.3797-7.3797h56.57788a7.12292,7.12292,0,0,1,7.3797,7.3797v5.48743a5.08782,5.08782,0,0,0,5.10907,5.10906h36.52015a12.275,12.275,0,0,1,12.2995,12.2995Z" transform="translate(-0.46838 -21.66144)"/><path class="cls-2" d="M100,62.34448a46.51568,46.51568,0,1,0,32.92493,13.62415A46.63134,46.63134,0,0,0,100,62.34448Zm25.73438,72.47266a36.54717,36.54717,0,0,1-51.46876,0,36.17373,36.17373,0,0,1-10.59655-25.73438A36.97833,36.97833,0,0,1,74.26562,83.34833,36.17343,36.17343,0,0,1,100,72.75183a36.9784,36.9784,0,0,1,25.73438,10.5965,36.17362,36.17362,0,0,1,10.59655,25.73443A35.40734,35.40734,0,0,1,125.73438,134.81714Z" transform="translate(-0.46838 -21.66144)"/><circle class="cls-3" cx="166.8952" cy="49.76581" r="9.27197"/></svg>