<svg id="Layer_1" data-name="Layer 1" xmlns="http://www.w3.org/2000/svg" xmlns:xlink="http://www.w3.org/1999/xlink" viewBox="0 0 173.33915 197.75"><defs><style>.cls-1{fill:url(#marvelous_cranes);}</style><linearGradient id="marvelous_cranes" x1="-20.23296" y1="173.6918" x2="152.39025" y2="1.06859" gradientUnits="userSpaceOnUse"><stop offset="0" stop-color="#f83600"/><stop offset="1" stop-color="#f9d423"/></linearGradient></defs><path class="cls-1" d="M148.88967,28.4563h-2.34325a2.41159,2.41159,0,1,0,0,4.82317h2.34325a2.41159,2.41159,0,1,0,0-4.82317Zm-9.54586,0H88.08959a2.41159,2.41159,0,1,0,0,4.82317h51.25422a2.41159,2.41159,0,1,0,0-4.82317ZM168.1367,90.77784l.00126-.00036a10.88625,10.88625,0,0,0,6.62238-6.27633,2.413,2.413,0,0,0-4.47589-1.80467,6.07477,6.07477,0,0,1-5.65276,3.83481,6.15356,6.15356,0,0,1,0-12.30712,2.41158,2.41158,0,0,0,2.41159-2.41159V53.38606a.01.01,0,0,1,.01-.01h9.7187a2.42163,2.42163,0,0,0,2.42163-2.42163V41.43264a.01.01,0,0,1,.01005-.01h5.05013a2.41575,2.41575,0,0,0,2.41574-2.42163h0l-.06833-16.56356a2.41162,2.41162,0,0,0-2.04985-2.37141v-.0024L60.64011,1.15275v.0024a2.45827,2.45827,0,0,0-.36174-.03015H33.36267a2.40194,2.40194,0,0,0-1.76247.7693L13.97754,20.80314a2.40037,2.40037,0,0,0-.64711,1.6443V39.001a2.42164,2.42164,0,0,0,2.42163,2.42164h15.201a.01.01,0,0,1,.01.01l-.01206,139.97361a.00985.00985,0,0,1-.00887.00979,15.13472,15.13472,0,0,0-13.5764,15.04737A2.41159,2.41159,0,0,0,19.7774,198.875H73.55173a2.41159,2.41159,0,0,0,2.41159-2.41159A15.14758,15.14758,0,0,0,62.70062,181.454a.00984.00984,0,0,1-.00866-.00977l.02331-140.01158a.01005.01005,0,0,1,.01005-.01H149.575a.01.01,0,0,1,.01.01v9.52176a2.42163,2.42163,0,0,0,2.42163,2.42163h10.205a.01.01,0,0,1,.01005.01V69.6625a.0098.0098,0,0,1-.00763.00955,10.99121,10.99121,0,0,0-1.87242,20.7995l.00125.00046a14.68382,14.68382,0,0,0,7.7938.30583Zm-15.73133-70.742H62.70564L62.694,6.34447Zm-94.5229,0H40.95194L57.87323,8.17044ZM35.76864,5.94817H52.63929L35.74091,17.7991ZM30.935,9.67768,30.9109,20.03584H21.28546ZM70.8552,194.05183H22.47156a10.322,10.322,0,0,1,10.02295-7.89393H60.83466A10.324,10.324,0,0,1,70.8552,194.05183ZM54.82057,59.12362l-19.03666,8.7621v-17.519ZM35.78592,45.056V41.42259h22.1062L57.88971,55.2265ZM57.8885,63.02235,57.88529,81.2885,38.03794,72.15864Zm-3.19334,22.1062L35.7819,93.82875V76.42916ZM57.88408,88.971l-.00281,17.47756L38.89083,97.709Zm-3.25122,21.29228-18.85337,8.67649V101.58721Zm3.2472,3.81513-.00321,17.98922-19.54068-8.99682Zm-3.12782,21.86022L35.77748,144.673V127.20508Zm3.1234,3.8718-.00281,18.31116-19.89558-9.15237Zm-3.23916,22.13112-18.861,8.67769V153.26347Zm3.23514,3.82116-.00281,15.572H35.77427v-5.40315ZM154.40819,48.55283V41.42258h4.82317a2.41159,2.41159,0,0,0,0-4.82317H18.15361V24.859H181.78973l.04823,11.7404H168.07384a2.41159,2.41159,0,1,0,0,4.82317h6.29826v7.13025Zm9.64634,45.11473" transform="translate(-13.33042 -1.125)"/></svg>