<svg id="Layer_1" data-name="Layer 1" xmlns="http://www.w3.org/2000/svg" xmlns:xlink="http://www.w3.org/1999/xlink" viewBox="0 0 522.74535 139"><defs><style>.cls-1{fill:url(#marvelous_cranes);}.cls-2{fill:#fff;}</style><linearGradient id="marvelous_cranes" x1="19.90184" y1="115.99643" x2="115.99643" y2="19.90184" gradientUnits="userSpaceOnUse"><stop offset="0" stop-color="#f83600"/><stop offset="1" stop-color="#f9d423"/></linearGradient></defs><circle class="cls-1" cx="67.94913" cy="67.94913" r="67.94913"/><path class="cls-2" d="M19.37637,81.45893h10.458v8.16655h5.70832V81.45893H54.501v.04164a.50011.50011,0,0,0,.5.5H56.9175v2.63146c-.32915.03187-.65034.07089-.95833.11842,0,3.29184.20825,7.20832.20825,7.20832h.40915L55.5635,97.54227l-.10335,66.79822,7.90107,1.58021L63.876,97.54227l-1.09355-5.58346h.38523A42.42234,42.42234,0,0,0,64.626,84.75049s-.57508-.06-1.46883-.1202V82.00061H64.126a.50011.50011,0,0,0,.50007-.5v-.13119l53.66414.9031v1.31238a.5.5,0,0,0,.49993.5h.38576l-.13244,14.62519a.99662.99662,0,0,0-.29287.707v3.41673a1.00009,1.00009,0,0,0,1.00011,1h.12417a.59886.59886,0,0,0,.01236.08269l.00428.01815.00988.04312c.00152.00839.00494.01334.00781.02983l.009.06468a1.044,1.044,0,0,1,.00438.17927,1.218,1.218,0,0,1-.03216.22354.89242.89242,0,0,1-.10823.23c-.03078.07238-.18341.22693-.28658.38615a2.64379,2.64379,0,0,0-.29317.53782,1.38764,1.38764,0,0,0-.093.746,1.04124,1.04124,0,0,0,.45278.66573,1.1815,1.1815,0,0,0,.68373.19438,1.30669,1.30669,0,0,0,1-.51529,1.11783,1.11783,0,0,0,.19248-.41735,1.04182,1.04182,0,0,0,.02073-.34564.96476.96476,0,0,0-.03955-.21073l-.01925-.07228a.20785.20785,0,0,0-.40788.07172l.00358.03984.00442.05a.54913.54913,0,0,1,.00453.13685.56916.56916,0,0,1-.04193.19368.59668.59668,0,0,1-.137.20362.74939.74939,0,0,1-.25056.15468.69618.69618,0,0,1-.31363.03407.43254.43254,0,0,1-.2484-.1176.22406.22406,0,0,1-.08558-.18243.65234.65234,0,0,1,.09644-.25552,1.79019,1.79019,0,0,1,.23794-.30718c.04837-.05275.08764-.08738.13944-.13709a1.75922,1.75922,0,0,0,.18436-.18534,1.96716,1.96716,0,0,0,.32929-.48028,2.3001,2.3001,0,0,0,.15182-.45911,2.20011,2.20011,0,0,0,.05-.364l.00371-.13738c.00014-.03449-.00234-.06895-.00428-.0985h.00895a1.0001,1.0001,0,0,0,1.00011-1V99.417a.992.992,0,0,0-.20853-.60487l.13324-14.72727h.53153a.50012.50012,0,0,0,.50005-.5V82.35311l3.40434.05731a1.11811,1.11811,0,0,0,2.00723.0338l3.40283.05727L128.39389,77.585l-26.896-.37422c-.13891-.26418-.37766-.71685-.51737-.9729-.25924-.47492-.65625-1.18049-1.17663-1.18049-.3271,0-.55159.20277-.77963.53221L61.78233,58.81405v-.56323a1.20866,1.20866,0,0,0-.44594-.85862,2.63272,2.63272,0,0,0-2.827,0,1.2085,1.2085,0,0,0-.4459.85862v.81242a.44933.44933,0,0,0,.02005.13052L33.24847,76.00065H19.37637Zm100.04952,2.626h.38506v-.04175a.5.5,0,0,1,.50007-.49993h.7292a.5.5,0,0,1,.5.49993v.04175h.26l-.13119,14.49456a.99289.99289,0,0,0-.5436-.16239h-1.37487a.98861.98861,0,0,0-.45556.11459ZM62.62581,156.24858l-4.84969-.0143,4.84969-2.71538Zm0-7.79177-4.85-.01429,4.85-2.71541Zm0-7.79179-4.85-.014,4.85-2.71566Zm0-7.79148-4.85051-.01429,4.85051-2.71595Zm0-7.79179-4.85051-.01426,4.85051-2.7157Zm0-7.79176-4.85107-.0143,4.85107-2.71622Zm0-7.79205-4.85107-.01429,4.85107-2.71581Zm0-7.79151-4.85135-.01426,4.85135-2.71609Zm0,62.33366-4.84941-.014,4.84941-2.71541ZM56.81365,160.876h5.05384l-5.05384,2.82969Zm5.81216-1.18476-4.83459-2.70686,4.83459.014Zm-5.81216-6.607h5.05384l-5.05384,2.82972Zm5.81216-1.18446-4.83512-2.70716,4.83512.01429Zm-5.81216-6.60731h5.05356l-5.05356,2.8297Zm5.81216-1.18419-4.83512-2.70743,4.83512.0143Zm-5.81216-6.60757h5.05328l-5.05328,2.8297Zm5.81216-1.1842-4.83569-2.70717,4.83569.014Zm-5.81216-6.60731h5.053l-5.053,2.82916Zm5.81216-1.1842-4.83569-2.70742,4.83569.01429Zm-5.81216-6.60756H61.8664l-5.05275,2.82913Zm5.81216-1.1842-4.836-2.70745,4.836.01429Zm-5.81216-6.60785H61.8664l-5.05275,2.82888Zm5.81216-1.18366-4.83625-2.708,4.83625.01429ZM56.81365,106.334h5.05218l-5.05218,2.82874Zm5.81216-1.18363-4.8365-2.708,4.8365.01415ZM56.81365,101.371V98.79225h4.60543ZM62.62581,169.5m-5.81216-12.20351,5.05356,2.82944H56.81365Zm0-7.79148,5.05328,2.82913H56.81365Zm0-7.79151,5.053,2.82916h-5.053Zm0-7.79177,5.05275,2.82914H56.81365Zm0-7.79151,5.05275,2.82888H56.81365Zm0-7.79176,5.05218,2.82888H56.81365Zm0-7.79151,5.05218,2.82835H56.81365Zm0-7.79162,5.05165,2.8286H56.81365ZM20.12619,76.75061h4.29139V77.209h-.083a2.49718,2.49718,0,0,0-2.087,1.125H20.12619Zm28.25,1.5834H44.33428v-1.5834h4.04191Zm.74982-1.5834h4.66671V78.334H49.126Zm-21.49379,2.0833h1.42953l-1.26964.85958A2.49866,2.49866,0,0,0,27.63222,78.83391ZM25.16738,77.209v-.45843h4.04191V78.334H27.37971a2.49721,2.49721,0,0,0-2.087-1.125Zm8.83365-.45843V78.334H30.693l2.33953-1.5834Zm.7498,0h4.04191V78.334H34.75083Zm4.79173,0h4.04192V78.334H39.54256Zm8.83363,2.0833V80.709H44.33428V78.83391ZM43.58448,80.709H39.54256V78.83391h4.04192Zm-4.79174,0H34.75083V78.83391h4.04191Zm-8.83362,0V78.83391H34.001V80.709Zm-.74983,0H27.79267v-.4124l1.41662-.95864Zm2.93109-3.95838-2.18126,1.4761v-1.4761Zm2.00051-.75L58.42207,59.56852l.38356,3.17564L57.039,79.34237H55.00109a.4996.4996,0,0,0-.4583.301V76.00065ZM57.6676,84.37559V82.90785l1.13446,1.13639-.28549.33135Zm2.52524,0-.36842-.36885,1.4048-1.63014h1.1779v1.999Zm-.8998-.90119-1.096-1.0978h2.042Zm-1.193-7.01943,2.67664,2.8874H57.79288Zm.82205-7.72131,2.24612,2.63339-2.85991,3.13153ZM60.391,62.58672l-.7902-.22708.27862-2.61885.22392.0382Zm-.95285,1.29862,1.13364,1.57049-1.4485,1.38944Zm1.11248.25937-.66626-.92344.58906.16937Zm.62232,6.07165-2.01643-2.36383,1.61531-1.54962Zm.935,9.126h-.30856l-3.47511-3.749,3.05666-3.34679Zm55.98321,1.9267-4.14562-.06977,1.63491-2.70621Zm-6.026-.10137-3.52882-.0595,1.55181-2.61964Zm-5.34633-.09-3.54323-.05962,1.75266-2.60686Zm-5.40731-.09107L98.00379,80.931l1.59235-2.56045Zm-5.18559-.08722-3.84134-.06457L94.199,78.2197Zm-5.76324-.097-3.71442-.06249,1.93936-2.58436Zm-5.501-.09259-2.762-.04642,1.58658-2.4202Zm-4.59871-.07734-3.24032-.05453,1.6157-2.49644Zm-5.003-.08421-3.13138-.05261,1.748-2.46386Zm-6.87355-2.79467,1.83316,2.7099-3.81633-.06429Zm.87511-.49112,3.896.05413-1.97521,2.78476Zm5.37418.07487,3.26368.04532L76.148,80.08831Zm4.75643.06608,3.61576.05028-1.81791,2.773Zm5.03517.07006,3.38662.04713-2.05764,2.74177Zm4.95326.06882,4.034.05618L91.3285,80.44742Zm5.61944.07818,3.85192.05357-1.76859,2.84371Zm9.16924.12762-1.91655,2.85044-1.90377-2.90361Zm1.53273.0213,3.62.05028-1.681,2.83766Zm5.15125.07169,3.91993.05455-1.74651,2.89056Zm10.25562.14262-1.851,2.85124h-.21115l-2.63779-2.91666Zm6.52927.09093-1.96188,3.01586-2.88726-3.08344Zm.80421.59733,2.371,2.81115-2.30149-.03874a1.10951,1.10951,0,0,0-1.54618-.5024Zm-5.36032,2.68117v-.01826a.5.5,0,0,0-.5-.49993h-2.13226l1.48122-2.28115,2.64465,2.82435ZM64.626,80.36941v-.527a.5001.5001,0,0,0-.50006-.5H62.86184L61.19709,63.095l.24782-3.566a.52279.52279,0,0,0,.25771-.20235L98.7558,76.01713l-.02788.047a8.92663,8.92663,0,0,0-.52863,1.1008l-29.71461-.41335-.30633-.0085-2.70087,3.6406ZM53.79272,80.709H49.126V78.83391h4.66671Zm-33.66653,0V78.83391h1.86886a2.48686,2.48686,0,0,0-.16045.87511v1Z" transform="translate(-7.25465 -30.5)"/><path d="M168.11479,118.53236c-1.0355,0-1.4059-.59172-1.4059-1.47929l.44436-30.11092h-.44436l-1.33135,10.43126L160.051,127.78019a1.785,1.785,0,0,1-1.84968,1.62779H155.612a1.27515,1.27515,0,0,1-1.4059-1.62779l8.952-50.38173a1.68174,1.68174,0,0,1,1.84969-1.55382h5.32657c1.0355,0,1.47986.44436,1.47986,1.55382V98.70534l-.37039,12.65076h.37039l4.14258-12.65076,7.47211-21.30688a1.90072,1.90072,0,0,1,1.99761-1.55382h5.47508q1.55325,0,1.33136,1.55382l-8.878,50.38173a1.78412,1.78412,0,0,1-1.84911,1.62779h-2.58933a1.27515,1.27515,0,0,1-1.40589-1.62779l5.40054-30.40678,2.36743-10.43126h-.44378l-10.13541,30.11092a2.00128,2.00128,0,0,1-1.99761,1.47929Z" transform="translate(-7.25465 -30.5)"/><path d="M207.76711,127.85415a1.66316,1.66316,0,0,1-1.77572,1.55383H203.476c-1.0355,0-1.55382-.59172-1.33136-1.55383l.14793-.96153a11.91526,11.91526,0,0,1-7.25022,2.88518c-3.25557,0-5.77093-2.07158-4.88336-6.80644l5.03129-28.26124c.81361-4.73486,3.99465-6.80644,7.25022-6.80644a8.23765,8.23765,0,0,1,6.21415,2.88576l.14793-.96211a1.79432,1.79432,0,0,1,1.92364-1.55325h2.4414c1.03607,0,1.55382.51775,1.33193,1.55325Zm-11.5413-7.17625c-.59171,3.18161.074,4.14314,2.58932,4.14314s4.06919-1.25739,4.6609-4.365l4.06919-23.23052c.51775-3.10708-.59172-4.43843-3.10708-4.43843-2.51593,0-3.47747,1.0355-4.06918,4.14257Z" transform="translate(-7.25465 -30.5)"/><path d="M236.174,105.28988a1.73242,1.73242,0,0,1-1.84968,1.55325H231.809c-1.03608,0-1.47986-.59171-1.258-1.55325l1.40589-8.36026c.59172-3.10707-.074-4.14257-2.58932-4.14257-2.44139,0-4.06918,1.33135-4.58693,4.43843l-5.40054,30.62867a1.78047,1.78047,0,0,1-1.84968,1.55383H215.089c-1.03607,0-1.55382-.59172-1.40589-1.55383l6.73247-38.02682a1.72372,1.72372,0,0,1,1.84968-1.55325h2.51536c1.0355,0,1.47928.51775,1.25739,1.55325l-.14793.96211a12.10744,12.10744,0,0,1,7.32419-2.88576c3.25557,0,5.697,2.07158,4.88279,6.80644Z" transform="translate(-7.25465 -30.5)"/><path d="M246.38221,89.82733l-.81361,20.78913-.88815,12.94719h.44436l3.69879-12.94719,6.58454-20.78913a1.88194,1.88194,0,0,1,2.07158-1.55325h2.51536c.96153,0,1.55382.59171,1.0355,1.92307l-12.42887,37.657a1.86728,1.86728,0,0,1-1.99761,1.55383h-5.10468c-1.18343,0-1.62779-.51775-1.62779-1.55383l.88814-37.657a1.80182,1.80182,0,0,1,1.84968-1.92307H244.829C246.01238,88.27408,246.45617,88.71786,246.38221,89.82733Z" transform="translate(-7.25465 -30.5)"/><path d="M279.59791,109.433a1.88166,1.88166,0,0,1-1.99761,1.70118H266.50336l-1.70175,9.76558c-.59171,3.10765.36982,4.14315,2.81122,4.14315,2.51536,0,3.77332-1.0355,4.365-4.14315l.36982-2.66329a1.79432,1.79432,0,0,1,1.92364-1.55325h2.4414c1.03607,0,1.55382.51775,1.33193,1.55325l-.44436,2.73725c-1.0355,5.697-3.62482,8.80405-10.80108,8.80405s-8.73008-3.10708-7.694-8.80405l4.21654-24.266c1.03607-5.6964,3.69936-8.80405,10.87562-8.80405s8.65554,3.10765,7.62,8.80405ZM267.317,106.47331h7.17626l1.70175-9.69162c.51775-3.181-.44379-4.14314-2.88518-4.14314-2.51536,0-3.77333.9621-4.29108,4.14314Z" transform="translate(-7.25465 -30.5)"/><path d="M287.95588,127.78019a1.78355,1.78355,0,0,1-1.84968,1.62779h-2.4414a1.27466,1.27466,0,0,1-1.40475-1.62779L292.17356,71.776a1.79343,1.79343,0,0,1,1.92307-1.55383h2.4414c1.0355,0,1.47928.51775,1.258,1.55383Z" transform="translate(-7.25465 -30.5)"/><path d="M317.84433,96.70773l-4.21768,24.266c-1.0355,5.697-3.62483,8.80405-10.80108,8.80405s-8.73008-3.10708-7.69458-8.80405l4.21768-24.266c1.0355-5.6964,3.69822-8.80405,10.87562-8.80405C317.40055,87.90368,318.87983,91.01133,317.84433,96.70773Zm-12.79983.074-4.21654,24.1181c-.59172,3.10765.37039,4.14315,2.81179,4.14315,2.51478,0,3.77275-1.0355,4.36446-4.14315l4.21654-24.1181c.51833-3.181-.44378-4.14314-2.88518-4.14314C306.82079,92.63855,305.56282,93.60065,305.0445,96.78169Z" transform="translate(-7.25465 -30.5)"/><path d="M325.01715,89.82733a1.72441,1.72441,0,0,1,1.84968-1.55325h2.51593c1.0355,0,1.47929.51775,1.258,1.55325l-5.40111,30.85057c-.59172,3.18161.07453,4.14314,2.58932,4.14314,2.51593,0,4.06861-1.25739,4.66147-4.365L337.817,89.82733a1.79341,1.79341,0,0,1,1.92307-1.55325h2.44139c1.0355,0,1.55383.51775,1.33136,1.55325l-6.73247,38.02682a1.663,1.663,0,0,1-1.77514,1.55383h-2.51479c-1.03665,0-1.55382-.59172-1.3325-1.55383l.14793-.96153a11.9112,11.9112,0,0,1-7.24965,2.88518c-3.25558,0-5.77036-2.07158-4.88279-6.80644Z" transform="translate(-7.25465 -30.5)"/><path d="M351.501,129.7778c-7.17626,0-8.73008-3.10708-7.768-8.80405l.88758-4.73486a1.73914,1.73914,0,0,1,1.84968-1.62721h2.44139c1.0355,0,1.47929.59171,1.33136,1.62721l-.81418,4.6609c-.59172,3.10765.37039,4.14315,2.88633,4.14315,2.44139,0,3.69821-1.0355,4.28993-4.14315.74079-4.58694.37039-4.95676-1.84854-7.694l-4.58693-5.4745c-2.22008-2.58933-3.25558-4.73487-2.14554-11.02355,1.0355-5.6964,3.69822-8.80405,10.80108-8.80405,7.17626,0,8.73008,3.10765,7.69458,8.80405l-.81418,4.73486a1.72444,1.72444,0,0,1-1.84968,1.55382h-2.51593c-1.0355,0-1.47929-.51775-1.25682-1.55382l.73964-4.6609c.59172-3.181-.37039-4.14314-2.88518-4.14314-2.44139,0-3.69936.9621-4.29108,4.14314-.73964,4.58694-.37039,4.95676,1.84969,7.694l4.58693,5.47508c2.21893,2.58932,3.25443,4.73486,2.14554,11.023C361.26654,126.67072,358.60268,129.7778,351.501,129.7778Z" transform="translate(-7.25465 -30.5)"/><path d="M409.57383,95.006a1.85539,1.85539,0,0,1-1.92422,1.62778H404.691c-1.03664,0-1.48043-.59171-1.3325-1.62778l1.55382-8.65555c.66626-3.55143,0-5.697-4.21653-5.697-4.21769,0-5.47451,2.14554-6.14076,5.697l-5.77036,32.55232c-.59172,3.55086-.07454,5.6964,4.14314,5.6964,4.21654,0,5.62244-2.14554,6.28754-5.6964l1.55383-8.73008a1.68168,1.68168,0,0,1,1.84968-1.55382h2.95972q1.55325,0,1.33135,1.55382l-1.55382,8.73008c-1.258,7.02833-4.36447,10.87505-13.24248,10.87505s-10.72769-3.84672-9.46972-10.87505l5.697-32.55232c1.25682-7.02833,4.439-10.87562,13.31587-10.87562,8.878,0,10.72769,3.84729,9.46972,10.87562Z" transform="translate(-7.25465 -30.5)"/><path d="M432.20919,105.28988a1.7317,1.7317,0,0,1-1.84968,1.55325h-2.51478c-1.0355,0-1.47929-.59171-1.258-1.55325l1.4059-8.36026c.59171-3.10707-.07454-4.14257-2.58933-4.14257-2.44139,0-4.06975,1.33135-4.58693,4.43843l-5.40112,30.62867a1.77893,1.77893,0,0,1-1.84968,1.55383h-2.44139c-1.0355,0-1.55268-.59172-1.40475-1.55383l6.73132-38.02682a1.72441,1.72441,0,0,1,1.84969-1.55325h2.51593c1.0355,0,1.47928.51775,1.258,1.55325l-.14793.96211a12.10613,12.10613,0,0,1,7.32418-2.88576c3.25443,0,5.69583,2.07158,4.88279,6.80644Z" transform="translate(-7.25465 -30.5)"/><path d="M451.1475,127.85415a1.663,1.663,0,0,1-1.77515,1.55383h-2.51478c-1.03665,0-1.55383-.59172-1.33251-1.55383l.14793-.96153a11.91118,11.91118,0,0,1-7.24965,2.88518c-3.25557,0-5.77036-2.07158-4.88279-6.80644l5.03072-28.26124c.813-4.73486,3.99522-6.80644,7.24965-6.80644a8.24089,8.24089,0,0,1,6.21529,2.88576l.14793-.96211a1.79341,1.79341,0,0,1,1.92307-1.55325h2.4414c1.0355,0,1.55382.51775,1.33136,1.55325Zm-11.54073-7.17625c-.59171,3.18161.07454,4.14314,2.58932,4.14314,2.51594,0,4.06861-1.25739,4.66148-4.365l4.06861-23.23052c.51832-3.10708-.59172-4.43843-3.10765-4.43843-2.51479,0-3.4769,1.0355-4.06861,4.14257Z" transform="translate(-7.25465 -30.5)"/><path d="M475.55915,127.85415A1.663,1.663,0,0,1,473.784,129.408h-2.51479c-1.03664,0-1.55382-.59172-1.3325-1.55383l5.40111-30.92453c.59172-3.10707-.07453-4.14257-2.58932-4.14257-2.44139,0-4.06861,1.33135-4.58693,4.43843l-5.40112,30.62867a1.77894,1.77894,0,0,1-1.84968,1.55383h-2.44139c-1.0355,0-1.55268-.59172-1.40475-1.55383L463.796,89.82733a1.72441,1.72441,0,0,1,1.84968-1.55325h2.51594c1.0355,0,1.47928.51775,1.258,1.55325l-.14792.96211a12.10608,12.10608,0,0,1,7.32418-2.88576c3.25443,0,5.69583,2.07158,4.88279,6.80644Z" transform="translate(-7.25465 -30.5)"/><path d="M503.22639,109.433a1.88131,1.88131,0,0,1-1.99761,1.70118H490.13184l-1.70175,9.76558c-.59172,3.10765.37039,4.14315,2.81179,4.14315,2.51479,0,3.77275-1.0355,4.36447-4.14315l.37039-2.66329a1.79341,1.79341,0,0,1,1.92307-1.55325h2.4414c1.0355,0,1.55382.51775,1.33136,1.55325l-.44379,2.73725c-1.0355,5.697-3.62482,8.80405-10.80108,8.80405s-8.73008-3.10708-7.69458-8.80405l4.21768-24.266c1.0355-5.6964,3.69822-8.80405,10.87448-8.80405,7.1774,0,8.65668,3.10765,7.62118,8.80405ZM490.946,106.47331h7.17626l1.7006-9.69162c.51833-3.181-.44378-4.14314-2.88518-4.14314-2.51478,0-3.77275.9621-4.29107,4.14314Z" transform="translate(-7.25465 -30.5)"/><path d="M514.69143,129.7778c-7.17626,0-8.73008-3.10708-7.768-8.80405l.88757-4.73486a1.73914,1.73914,0,0,1,1.84968-1.62721h2.44139c1.03551,0,1.47929.59171,1.33136,1.62721l-.81418,4.6609c-.59171,3.10765.3704,4.14315,2.88633,4.14315,2.44139,0,3.69821-1.0355,4.28993-4.14315.74079-4.58694.37039-4.95676-1.84854-7.694l-4.58693-5.4745c-2.22007-2.58933-3.25557-4.73487-2.14554-11.02355,1.0355-5.6964,3.69822-8.80405,10.80108-8.80405,7.17626,0,8.73009,3.10765,7.69459,8.80405l-.81419,4.73486a1.72444,1.72444,0,0,1-1.84968,1.55382H524.5304c-1.0355,0-1.47929-.51775-1.25682-1.55382l.73964-4.6609c.59172-3.181-.37039-4.14314-2.88518-4.14314-2.44139,0-3.69936.9621-4.29107,4.14314-.73965,4.58694-.3704,4.95676,1.84968,7.694l4.58693,5.47508c2.21893,2.58932,3.25443,4.73486,2.14554,11.023C524.457,126.67072,521.79315,129.7778,514.69143,129.7778Z" transform="translate(-7.25465 -30.5)"/></svg>