<svg id="Layer_1" data-name="Layer 1" xmlns="http://www.w3.org/2000/svg" xmlns:xlink="http://www.w3.org/1999/xlink" viewBox="0 0 174.69554 198.76471"><defs><style>.cls-1{fill:url(#marvelous_cranes);}.cls-2{fill:url(#marvelous_cranes-2);}</style><linearGradient id="marvelous_cranes" x1="28.75334" y1="188.06908" x2="171.2651" y2="45.55731" gradientUnits="userSpaceOnUse"><stop offset="0" stop-color="#f83600"/><stop offset="1" stop-color="#f9d423"/></linearGradient><linearGradient id="marvelous_cranes-2" x1="79.4216" y1="85.6393" x2="120.57841" y2="44.48249" xlink:href="#marvelous_cranes"/></defs><path class="cls-1" d="M133.18284,131.944c21.151-33.18943,18.49212-29.04875,19.10162-29.91408A63.57722,63.57722,0,0,0,164.055,65.06089C164.055,29.7258,135.3813.61765,100,.61765c-35.266,0-64.055,29.05069-64.055,64.44324a63.90962,63.90962,0,0,0,12.10834,37.44152l18.76309,29.442c-20.06089,3.08281-54.16417,12.26984-54.16417,32.49882,0,7.3741,4.81306,17.883,27.74242,26.07195,16.01065,5.718,37.17872,8.86716,59.60535,8.86716,41.93664,0,87.34777-11.8296,87.34777-34.93911C187.34777,144.21078,153.28449,135.03344,133.18284,131.944ZM57.78153,96.09653q-.0961-.15024-.20072-.29427A52.6746,52.6746,0,0,1,100,12.264c28.89815,0,52.40866,23.68443,52.40866,52.79687a51.99234,51.99234,0,0,1-9.56788,30.15282c-.561.73994,2.36577-3.80679-42.84078,67.12891ZM100,187.736c-45.80673,0-75.7014-13.46436-75.7014-23.29274,0-6.60581,15.36078-17.46761,49.39923-21.70145l21.3913,33.566a5.823,5.823,0,0,0,9.821,0l21.3909-33.566c34.03923,4.23384,49.40039,15.09564,49.40039,21.70145C175.7014,174.18815,146.07576,187.736,100,187.736Z" transform="translate(-12.65223 -0.61765)"/><path class="cls-2" d="M129.11592,65.06089A29.11592,29.11592,0,1,0,100,94.17682,29.149,29.149,0,0,0,129.11592,65.06089Zm-46.58547,0A17.46955,17.46955,0,1,1,100,82.53045,17.48938,17.48938,0,0,1,82.53045,65.06089Z" transform="translate(-12.65223 -0.61765)"/></svg>