<svg id="Layer_1" data-name="Layer 1" xmlns="http://www.w3.org/2000/svg" xmlns:xlink="http://www.w3.org/1999/xlink" viewBox="0 0 198.75304 198.74457"><defs><style>.cls-1{fill:url(#marvelous_cranes);}</style><linearGradient id="marvelous_cranes" x1="29.75526" y1="170.10766" x2="170.24415" y2="29.61877" gradientUnits="userSpaceOnUse"><stop offset="0" stop-color="#f83600"/><stop offset="1" stop-color="#f9d423"/></linearGradient></defs><path class="cls-1" d="M171.80168,31.20855A99.33312,99.33312,0,1,0,31.20422,171.49917c.057.05654.07817.14178.13471.19168.57461.5534,1.19912,1.022,1.78121,1.55419,1.59659,1.419,3.19319,2.888,4.875,4.25759.901.70973,1.83775,1.419,2.76037,2.07183,1.58953,1.185,3.17906,2.37,4.83927,3.463,1.12843.70974,2.2922,1.41906,3.44849,2.1288,1.53256.92261,3.05848,1.85189,4.64094,2.69633,1.34131.70974,2.71048,1.31969,4.073,1.96539,1.49015.70974,2.95911,1.41906,4.4846,2.0577s3.05849,1.13549,4.60519,1.68891,2.88094,1.06439,4.364,1.51843c1.67477.50393,3.392.89393,5.095,1.31262,1.41906.3476,2.79571.74508,4.2576,1.02906,1.95832.39042,3.94534.63865,5.93236.90848,1.2278.17048,2.42691.41162,3.66843.5322,3.25015.31932,6.52817.49686,9.83487.49686s6.58514-.17754,9.83488-.49686c1.24193-.12058,2.441-.36172,3.66843-.5322,1.987-.26983,3.97362-.51806,5.93236-.90848,1.419-.284,2.83853-.70973,4.25759-1.02906,1.703-.41868,3.42021-.80911,5.095-1.31262,1.48308-.454,2.91629-1.00744,4.364-1.51843s3.09382-1.0644,4.60518-1.68891,2.99445-1.35545,4.48461-2.0577c1.36252-.64571,2.7321-1.25607,4.073-1.96539,1.58246-.84445,3.108-1.77414,4.64094-2.69633,1.15671-.70974,2.32047-1.35545,3.44849-2.1288,1.66062-1.09266,3.25015-2.27764,4.83927-3.463.92262-.70974,1.859-1.34838,2.76037-2.07183,1.68184-1.34838,3.27844-2.78158,4.875-4.25759.58167-.5322,1.20618-1.00037,1.78121-1.55419.05654-.04948.07816-.13472.13471-.19168A99.22218,99.22218,0,0,0,171.80168,31.20855Zm-15.94893,132.861c-1.29141,1.13549-2.62566,2.214-3.97362,3.25723-.79456.61036-1.58953,1.21325-2.40571,1.79534-1.28434.92968-2.5899,1.80947-3.91706,2.65393-.965.61742-1.95126,1.21324-2.945,1.79533q-1.87351,1.06461-3.80357,2.1288c-1.13549.58167-2.2922,1.12842-3.45555,1.66769s-2.44812,1.11387-3.70419,1.6178-2.5899.97917-3.90293,1.419c-1.19911.41162-2.39822.83739-3.61189,1.19912-1.41906.42575-2.90215.77334-4.3711,1.12842-1.14964.26943-2.28471.5746-3.44849.802-1.68184.32638-3.399.5534-5.12324.78749-.97917.12765-1.95126.30519-2.93791.40455-2.725.26236-5.48539.41869-8.274.41869s-5.549-.15592-8.274-.41869c-.98623-.09938-1.95833-.2769-2.9379-.40455-1.72424-.23408-3.44141-.46111-5.12325-.78749-1.16377-.227-2.29927-.5322-3.44849-.802-1.469-.35466-2.93083-.70974-4.3711-1.12842-1.21325-.36173-2.41277-.7875-3.61188-1.19912-1.31262-.454-2.62566-.91554-3.90293-1.419-1.27729-.50393-2.48347-1.05733-3.70419-1.6178s-2.32047-1.0856-3.45556-1.66769c-1.28435-.66692-2.55455-1.36959-3.80356-2.1288-.9933-.58167-1.97994-1.17791-2.945-1.79533-1.32676-.84446-2.63273-1.72425-3.91707-2.65393-.81618-.58167-1.61074-1.185-2.40571-1.79534-1.34837-1.04319-2.6822-2.12879-3.97361-3.25723-.31226-.23408-.59623-.5322-.901-.802A56.93108,56.93108,0,0,1,81.89784,110.083a42.07352,42.07352,0,0,0,36.14715,0,56.9318,56.9318,0,0,1,38.69462,53.18458C156.4415,163.53738,156.15752,163.80723,155.85275,164.06958ZM75.22707,57.52247a28.384,28.384,0,1,1,38.65262,38.65264.14974.14974,0,0,0-.12058.04241,30.06387,30.06387,0,0,1-5.93236,2.51214c-.36879.10644-.70973.24822-1.09974.34052-.70974.18461-1.45481.31226-2.18576.4399a28.74361,28.74361,0,0,1-4.16529.41869h-.80911a28.74249,28.74249,0,0,1-4.16529-.41869c-.70974-.12765-1.46189-.25529-2.18534-.4399-.37628-.0923-.70974-.23408-1.09975-.34052a30.04019,30.04019,0,0,1-5.93236-2.51214l-.12764-.04241A28.38386,28.38386,0,0,1,75.22707,57.52247Zm94.10071,91.67422h0a71.31344,71.31344,0,0,0-37.99195-48.91243,42.57585,42.57585,0,1,0-62.72841,0,71.31435,71.31435,0,0,0-37.99195,48.91243,85.15228,85.15228,0,1,1,138.71231,0Z" transform="translate(-0.62348 -0.62772)"/></svg>