<svg id="Layer_1" data-name="Layer 1" xmlns="http://www.w3.org/2000/svg" xmlns:xlink="http://www.w3.org/1999/xlink" viewBox="0 0 197.47058 197.47058"><defs><style>.cls-1{fill:url(#marvelous_cranes);}.cls-2{fill:url(#marvelous_cranes-2);}</style><linearGradient id="marvelous_cranes" x1="30.18383" y1="169.81635" x2="169.81617" y2="30.184" gradientUnits="userSpaceOnUse"><stop offset="0" stop-color="#f83600"/><stop offset="1" stop-color="#f9d423"/></linearGradient><linearGradient id="marvelous_cranes-2" x1="69.63315" y1="130.36686" x2="130.36688" y2="69.63314" xlink:href="#marvelous_cranes"/></defs><path class="cls-1" d="M180.55644,75.62472H176.364a79.72729,79.72729,0,0,0-5.13847-12.37934l2.969-2.969a18.17777,18.17777,0,0,0,.00236-25.71168l-8.75933-8.75891a18.17874,18.17874,0,0,0-25.71161-.00271l-2.97133,2.97133A79.71693,79.71693,0,0,0,124.37528,23.636V19.4432A18.19918,18.19918,0,0,0,106.19679,1.26471H93.80364A18.19932,18.19932,0,0,0,75.62472,19.4432v4.19241a79.78966,79.78966,0,0,0-12.37927,5.13847l-2.96861-2.96861a18.1767,18.1767,0,0,0-25.71132-.00236l-8.76,8.75969a18.1788,18.1788,0,0,0-.00229,25.71168l2.97126,2.9709A79.7447,79.7447,0,0,0,23.636,75.62472H19.44356A18.19949,18.19949,0,0,0,1.26471,93.80321v12.39358A18.19946,18.19946,0,0,0,19.4432,124.37528h4.19241a79.7311,79.7311,0,0,0,5.13847,12.37934l-2.969,2.969a18.17777,18.17777,0,0,0-.00236,25.71168l8.75933,8.75891a18.17868,18.17868,0,0,0,25.71161.00264l2.97133-2.97126A79.72513,79.72513,0,0,0,75.62436,176.364v4.19277a18.19953,18.19953,0,0,0,18.17885,18.17849h12.39322a18.19909,18.19909,0,0,0,18.17885-18.17771v-4.19276a79.80184,79.80184,0,0,0,12.37934-5.13847l2.96862,2.96861a18.17668,18.17668,0,0,0,25.71124.00229l8.76-8.75969a18.1788,18.1788,0,0,0,.00236-25.71168l-2.97133-2.97133a79.7411,79.7411,0,0,0,5.13847-12.37927h4.19241a18.19953,18.19953,0,0,0,18.17885-18.17849V93.80321A18.19949,18.19949,0,0,0,180.55644,75.62472Zm6.60872,30.57242a6.61585,6.61585,0,0,1-6.60836,6.60794H172.015a5.78513,5.78513,0,0,0-5.60163,4.33935,68.17949,68.17949,0,0,1-7.3373,17.67628,5.78548,5.78548,0,0,0,.889,7.03568l6.05328,6.05335a6.60678,6.60678,0,0,1-.00229,9.34318l-8.76549,8.76506a6.60574,6.60574,0,0,1-9.34283-.00265l-6.05055-6.05106a5.7851,5.7851,0,0,0-7.036-.889,68.19472,68.19472,0,0,1-17.67635,7.33766,5.78486,5.78486,0,0,0-4.33971,5.6017v8.54214a6.61585,6.61585,0,0,1-6.60836,6.60793H93.80364a6.61585,6.61585,0,0,1-6.60836-6.60793v-8.54214a5.78493,5.78493,0,0,0-4.33971-5.6017,68.19472,68.19472,0,0,1-17.67635-7.33766,5.8125,5.8125,0,0,0-7.0364.88862l-6.053,6.05334a6.60651,6.60651,0,0,1-9.34319-.00236l-8.7647-8.7647a6.60582,6.60582,0,0,1,.00236-9.34318l6.051-6.051a5.78556,5.78556,0,0,0,.889-7.03568A68.19365,68.19365,0,0,1,33.587,117.144a5.78532,5.78532,0,0,0-5.6017-4.33928H19.44356a6.61583,6.61583,0,0,1-6.60829-6.60793V93.80314a6.61637,6.61637,0,0,1,6.60829-6.60829H27.9857a5.78524,5.78524,0,0,0,5.6017-4.33936,68.18346,68.18346,0,0,1,7.3373-17.67634,5.78539,5.78539,0,0,0-.889-7.03561l-6.05328-6.05335a6.60678,6.60678,0,0,1,.00229-9.34318l8.76549-8.76513a6.60586,6.60586,0,0,1,9.34282.00272l6.05063,6.05106a5.786,5.786,0,0,0,7.036.889A68.19334,68.19334,0,0,1,82.85592,33.587a5.78478,5.78478,0,0,0,4.33972-5.60163V19.44313A6.61585,6.61585,0,0,1,93.804,12.8352h12.39322a6.61583,6.61583,0,0,1,6.60829,6.60793v8.54292a5.78487,5.78487,0,0,0,4.33971,5.60171,68.1916,68.1916,0,0,1,17.67635,7.33766,5.78506,5.78506,0,0,0,7.036-.88905l6.05291-6.05327a6.60658,6.60658,0,0,1,9.34326.00229l8.76463,8.76469a6.60583,6.60583,0,0,1-.00229,9.34319l-6.051,6.051a5.78559,5.78559,0,0,0-.889,7.03569,68.19478,68.19478,0,0,1,7.3373,17.67634,5.78525,5.78525,0,0,0,5.60163,4.33936h8.54178a6.6158,6.6158,0,0,1,6.60836,6.60793Z" transform="translate(-1.26471 -1.26471)"/><path class="cls-2" d="M100,57.03472A42.96528,42.96528,0,1,0,142.96528,100,43.01381,43.01381,0,0,0,100,57.03472Zm0,74.36a31.39476,31.39476,0,0,1,0-62.78952v.00008a31.39472,31.39472,0,0,1,0,62.78944Z" transform="translate(-1.26471 -1.26471)"/></svg>