<svg id="Layer_1" data-name="Layer 1" xmlns="http://www.w3.org/2000/svg" xmlns:xlink="http://www.w3.org/1999/xlink" viewBox="0 0 140.62215 196.08984"><defs><style>.cls-1{fill:url(#marvelous_cranes);}</style><linearGradient id="marvelous_cranes" x1="-5.41687" y1="160.70343" x2="115.98998" y2="39.29657" gradientUnits="userSpaceOnUse"><stop offset="0" stop-color="#f83600"/><stop offset="1" stop-color="#f9d423"/></linearGradient></defs><path class="cls-1" d="M163.27932,113.28121,69.141,192.96688c-4.6873,3.90582-8.20317,5.078-12.109,5.078H34.37622c-3.12513,0-4.68729-1.563-4.68729-3.90662,0-1.9529,1.17142-4.29655,3.90581-6.6402L135.93622,100,33.59474,12.5019c-2.73439-2.34365-3.90581-4.6873-3.90581-6.6402,0-2.34365,1.56216-3.90662,4.68729-3.90662H57.032c3.90582,0,7.42169,1.17222,12.109,5.078l94.1383,79.68567c4.6873,3.90661,7.03175,8.98465,7.03175,13.28121S167.96662,109.3746,163.27932,113.28121Z" transform="translate(-29.68893 -1.95508)"/></svg>