<svg id="Layer_1" data-name="Layer 1" xmlns="http://www.w3.org/2000/svg" xmlns:xlink="http://www.w3.org/1999/xlink" viewBox="0 0 197.83912 197.83912"><defs><style>.cls-1{fill:none;}.cls-2{clip-path:url(#clip-path);}.cls-3{fill:#10bc4c;fill-rule:evenodd;}</style><clipPath id="clip-path" transform="translate(-1.08044 -1.08044)"><rect class="cls-1" x="1.08044" y="1.08044" width="197.83912" height="197.83912"/></clipPath></defs><g class="cls-2"><path class="cls-3" d="M158.36254,89.11885C126.70828,70.32414,73.78632,68.34575,43.61585,77.7431a9.07287,9.07287,0,1,1-5.44057-17.31093C73.29172,50.04562,131.15967,52.024,167.75989,73.78631a9.56006,9.56006,0,0,1,3.46218,12.85955c-2.473,3.46218-8.40815,4.946-12.85953,2.473m-.98919,27.69747c-2.473,3.46218-6.92438,4.946-10.38656,2.473-26.70828-16.32173-67.2653-21.26771-98.425-11.37575-3.95678.98919-8.40816-.9892-9.39736-4.946s.9892-8.40816,4.946-9.39736C80.2161,82.68907,124.72989,88.12964,155.395,106.92436c2.96758,1.48381,4.45137,6.42978,1.97839,9.892M145.503,144.01921c-1.97839,2.96758-5.44057,3.95678-8.40817,1.97839-23.24609-14.34334-52.42736-17.31092-87.04921-9.39736-3.46218.98919-6.42977-1.4838-7.419-4.45138-.9892-3.46218,1.48379-6.42978,4.45138-7.419,37.58943-8.40817,70.23288-4.946,95.952,10.88115,3.46219,1.48379,3.95678,5.44057,2.473,8.40817M100,1.08044C45.59424,1.08044,1.08044,45.59425,1.08044,100S45.59424,198.91956,100,198.91956,198.91956,154.40575,198.91956,100A98.89211,98.89211,0,0,0,100,1.08044" transform="translate(-1.08044 -1.08044)"/></g></svg>