<svg id="Layer_1" data-name="Layer 1" xmlns="http://www.w3.org/2000/svg" xmlns:xlink="http://www.w3.org/1999/xlink" viewBox="0 0 196.86996 196.86996"><defs><style>.cls-1{fill:none;}.cls-2{clip-path:url(#clip-path);}.cls-3{fill:#1cb7eb;}.cls-4{fill:#fff;}</style><clipPath id="clip-path" transform="translate(-1.56502 -1.56501)"><rect class="cls-1" x="1.56502" y="1.56501" width="196.86996" height="196.86999"/></clipPath></defs><g class="cls-2"><circle class="cls-3" cx="98.43498" cy="98.43498" r="98.43498"/></g><g class="cls-2"><path class="cls-4" d="M152.49865,64.72745a32.8797,32.8797,0,0,1-12.30437,3.69132,22.85362,22.85362,0,0,0,9.43335-12.71453,47.44659,47.44659,0,0,1-13.945,5.742c-4.10147-4.51161-9.43335-7.38263-15.58554-7.38263-11.89423,0-21.73773,10.25364-21.73773,23.3783a23.38624,23.38624,0,0,0,.41015,5.3319c-18.04641-.82029-34.0421-10.25364-44.70589-24.19859-2.05072,3.28116-2.871,7.38261-2.871,11.89422A23.33025,23.33025,0,0,0,60.626,89.74634a19.7474,19.7474,0,0,1-9.8435-2.871v.41014c0,11.07395,7.38263,20.50729,17.22613,22.96817a24.20629,24.20629,0,0,1-5.742.8203,13.95275,13.95275,0,0,1-4.10146-.41015c2.871,9.43335,10.66379,15.99568,20.09714,15.99568A41.884,41.884,0,0,1,51.60281,136.503a25.22812,25.22812,0,0,1-5.3319-.41014,58.27112,58.27112,0,0,0,33.2218,10.66378c39.78415,0,61.52187-35.27254,61.52187-66.03347v-2.871A49.00125,49.00125,0,0,0,152.49865,64.72745Z" transform="translate(-1.56502 -1.56501)"/></g></svg>