<svg id="Layer_1" data-name="Layer 1" xmlns="http://www.w3.org/2000/svg" viewBox="0 0 173.33912 197.75"><path d="M135.55924,27.3313H133.216a2.41159,2.41159,0,1,0-.0091,4.82317h2.35234a2.41159,2.41159,0,0,0,.01006-4.82317Zm-9.54585,0H74.75917a2.41159,2.41159,0,1,0-.0091,4.82317h51.26332a2.41159,2.41159,0,0,0,.01006-4.82317Zm28.79289,62.32154.00127-.00036a10.88623,10.88623,0,0,0,6.62238-6.27633,2.413,2.413,0,0,0-4.4759-1.80467,6.07476,6.07476,0,0,1-5.65275,3.83481,6.15356,6.15356,0,1,1,0-12.30712,2.41158,2.41158,0,0,0,2.41159-2.41157V52.26106a.01.01,0,0,1,.01-.01h9.71871a2.42163,2.42163,0,0,0,2.42163-2.42163h0V40.30764a.01.01,0,0,1,.01-.01h5.05019a2.41573,2.41573,0,0,0,2.41574-2.41575V37.876h0l-.06833-16.56356a2.41161,2.41161,0,0,0-2.04985-2.37141v-.0024L47.30969.02775v.0024A2.45815,2.45815,0,0,0,46.948,0H20.03225a2.4019,2.4019,0,0,0-1.76247.7693L.64712,19.67814A2.40037,2.40037,0,0,0,0,21.32244V37.876a2.42164,2.42164,0,0,0,2.42163,2.42164h15.201a.01.01,0,0,1,.01.01l-.01206,139.97361a.00985.00985,0,0,1-.00887.0098,15.13471,15.13471,0,0,0-13.5764,15.04736A2.4116,2.4116,0,0,0,6.4469,197.75H60.22131a2.4116,2.4116,0,0,0,2.41159-2.41159h0A15.14759,15.14759,0,0,0,49.3702,180.329a.00983.00983,0,0,1-.00866-.00976l.02331-140.01158a.01005.01005,0,0,1,.01-.01h86.84968a.01.01,0,0,1,.01.01v9.52176A2.42163,2.42163,0,0,0,138.6762,52.251h10.205a.01.01,0,0,1,.01006.00994V68.5375a.00979.00979,0,0,1-.00763.00955,10.99121,10.99121,0,0,0-1.87242,20.7995l.00125.00046a14.68391,14.68391,0,0,0,7.79379.30583ZM139.075,18.91084H49.37522L49.36358,5.21947Zm-94.5229,0H27.62152L44.54281,7.04544ZM22.43822,4.82317H39.30887L22.41049,16.6741ZM17.60458,8.55268l-.0241,10.35816H7.955Zm39.9202,184.37415H9.14114a10.322,10.322,0,0,1,10.023-7.89393H47.50424A10.324,10.324,0,0,1,57.52478,192.92683ZM41.49015,57.99862l-19.03666,8.7621v-17.519ZM22.4555,43.931V40.29759H44.5617L44.55929,54.1015ZM44.55808,61.89735,44.55487,80.1635,24.70752,71.03364Zm-3.19334,22.1062-18.91326,8.7002V75.30416ZM44.55366,87.846l-.00281,17.47756L25.56041,96.584Zm-3.25122,21.29228-18.85337,8.67649V100.46221Zm3.2472,3.81513-.00321,17.98922-19.54068-8.99682Zm-3.12782,21.86022L22.44706,143.548V126.08008Zm3.1234,3.87179-.00281,18.31116-19.89558-9.15237Zm-3.23916,22.13112-18.861,8.67769V152.13847Zm3.23514,3.82117-.00281,15.572H22.44385v-5.40316ZM141.07777,47.42783V40.29758h4.82316a2.41159,2.41159,0,0,0,0-4.82317H4.82319V23.734H168.45931l.04824,11.7404H154.74342a2.41159,2.41159,0,0,0-.01006,4.82317h6.30832v7.13025Z" transform="translate(-0.00001 0)"/></svg>