<svg id="Layer_1" data-name="Layer 1" xmlns="http://www.w3.org/2000/svg" xmlns:xlink="http://www.w3.org/1999/xlink" viewBox="0 0 200 200"><defs><style>.cls-1{fill:url(#marvelous_cranes);}.cls-2{fill:url(#marvelous_cranes-2);}.cls-3{fill:url(#marvelous_cranes-3);}.cls-4{fill:url(#marvelous_cranes-4);}.cls-5{fill:url(#marvelous_cranes-5);}.cls-6{fill:url(#marvelous_cranes-6);}.cls-7{fill:url(#marvelous_cranes-7);}</style><linearGradient id="marvelous_cranes" x1="139.81295" y1="145.82813" x2="149.89566" y2="135.74541" gradientUnits="userSpaceOnUse"><stop offset="0" stop-color="#f83600"/><stop offset="1" stop-color="#f9d423"/></linearGradient><linearGradient id="marvelous_cranes-2" x1="124.27513" y1="145.82813" x2="134.35784" y2="135.74541" xlink:href="#marvelous_cranes"/><linearGradient id="marvelous_cranes-3" x1="155.35076" y1="145.82813" x2="165.43348" y2="135.74541" xlink:href="#marvelous_cranes"/><linearGradient id="marvelous_cranes-4" x1="170.88858" y1="145.82813" x2="180.9713" y2="135.74541" xlink:href="#marvelous_cranes"/><linearGradient id="marvelous_cranes-5" x1="134.61552" y1="35.40157" x2="139.04391" y2="30.97318" xlink:href="#marvelous_cranes"/><linearGradient id="marvelous_cranes-6" x1="89.93749" y1="47.21905" x2="118.00085" y2="19.1557" xlink:href="#marvelous_cranes"/><linearGradient id="marvelous_cranes-7" x1="4.27552" y1="187.55888" x2="171.1047" y2="20.7297" xlink:href="#marvelous_cranes"/></defs><path class="cls-1" d="M147.19613,147.49613V134.07742a2.38973,2.38973,0,0,0-2.03879-2.40135,2.33148,2.33148,0,0,0-2.62256,2.31291v13.59559a2.33147,2.33147,0,0,0,2.62256,2.3129A2.38972,2.38972,0,0,0,147.19613,147.49613Z"/><path class="cls-2" d="M131.65831,147.49613V134.07742a2.38973,2.38973,0,0,0-2.03879-2.40135A2.33148,2.33148,0,0,0,126.997,133.989v13.59559a2.33147,2.33147,0,0,0,2.62256,2.3129A2.38972,2.38972,0,0,0,131.65831,147.49613Z"/><path class="cls-3" d="M162.734,147.49613V134.07742a2.38973,2.38973,0,0,0-2.03879-2.40135,2.33148,2.33148,0,0,0-2.62256,2.31291v13.59559a2.33147,2.33147,0,0,0,2.62256,2.3129A2.38972,2.38972,0,0,0,162.734,147.49613Z"/><path class="cls-4" d="M178.27177,147.49613V134.07742a2.38973,2.38973,0,0,0-2.03879-2.40135,2.33148,2.33148,0,0,0-2.62256,2.31291v13.59559a2.33147,2.33147,0,0,0,2.62256,2.3129A2.38972,2.38972,0,0,0,178.27177,147.49613Z"/><path class="cls-5" d="M137.962,30.8567H135.6974a2.33068,2.33068,0,0,0,0,4.66135H137.962a2.33068,2.33068,0,0,0,0-4.66135Z"/><path class="cls-6" d="M128.73645,30.8567H79.20189a2.33068,2.33068,0,1,0,0,4.66135h49.53456a2.33068,2.33068,0,0,0,0-4.66135Z"/><path class="cls-7" d="M193.02038,121.90832c-.00424-.04272-.012-.08391-.01854-.12547-.005-.033-.0085-.066-.01467-.09827-.00965-.04816-.02278-.09478-.03514-.14178-.007-.02641-.01237-.05282-.02047-.07769-.01274-.04273-.029-.08391-.044-.12547-.01082-.02991-.02047-.06021-.03245-.08973s-.032-.06875-.04827-.10294-.03167-.07031-.04981-.10411c-.01468-.02758-.03167-.054-.0475-.0808-.02278-.03884-.0444-.07769-.06951-.11652-.01506-.02254-.032-.04351-.04788-.06565-.02819-.03885-.056-.0777-.08689-.11653-.02163-.02641-.04557-.0505-.06835-.07575s-.05369-.06255-.083-.09206c-.05407-.05439-.11083-.10566-.16992-.15538l-.00347-.00311L156.79309,91.28134a10.48579,10.48579,0,0,0,6.36335-6.066,2.32034,2.32034,0,1,0-4.30041-1.74412h0a5.837,5.837,0,0,1-5.43114,3.70615,5.94722,5.94722,0,0,1,0-11.89419,2.32389,2.32389,0,0,0,2.317-2.33068V54.94033h9.32269a2.33067,2.33067,0,0,0,2.33067-2.33068V43.287h4.667a2.325,2.325,0,0,0,2.325-2.33036l0-.01-.06266-16.00784a2.29541,2.29541,0,0,0-1.87955-2.29183V22.737L52.80388,4.47781V4.47147a2.39317,2.39317,0,0,0-.35048-.02906H26.37579A2.33268,2.33268,0,0,0,24.6682,5.184L7.59427,23.411a2.3074,2.3074,0,0,0-.627,1.585V40.95629A2.33067,2.33067,0,0,0,9.298,43.287H24.05891l-.01166,135.38535A14.6371,14.6371,0,0,0,10.908,193.22537a2.33232,2.33232,0,0,0,2.33241,2.33222h52.009a2.33232,2.33232,0,0,0,2.33241-2.33222A14.64949,14.64949,0,0,0,54.7461,178.70885L54.76861,43.287h83.88172v9.32268a2.33068,2.33068,0,0,0,2.33067,2.33068h9.71114V70.71647a10.66188,10.66188,0,0,0-1.80835,20.14009L113.08879,120.26l-.00387.0035a2.213,2.213,0,0,0-.16707.15216c-.03249.0323-.06149.06693-.09165.10079-.0205.02335-.04254.04514-.06227.06965-.03171.03892-.05994.07784-.08895.11908-.01509.0214-.03171.04164-.04641.06343-.02514.03892-.04718.07784-.07.11674-.01585.02685-.03249.05254-.04718.08016-.01818.03386-.03365.06928-.04989.1043s-.03365.0681-.04834.10313-.02166.05993-.03249.08989c-.01508.04164-.03132.08289-.04409.12569-.00812.02646-.01354.05371-.0205.08056-.01238.0463-.02553.09262-.03481.14048-.007.03425-.01044.06888-.01585.10313-.00618.03892-.01392.08016-.01778.12142a2.29289,2.29289,0,0,0-.0116.23038V159.8206a2.33066,2.33066,0,0,0,2.33067,2.33067H190.702a2.33067,2.33067,0,0,0,2.33068-2.33067V122.13673a2.27809,2.27809,0,0,0-.01237-.22841Zm-51.58412-99.209H54.7461l-.01126-13.232Zm-91.34257,0H33.7312L50.08476,11.232ZM28.74706,9.10375H45.05167L28.72026,20.55707Zm-4.68815,3.585L24.0356,22.69935H14.73311ZM62.97426,190.89624H15.35692a10.15851,10.15851,0,0,1,9.86421-7.7689H53.11242A10.16049,10.16049,0,0,1,62.97426,190.89624ZM47.1182,60.49509,28.72026,68.9632V52.032ZM28.72026,46.79851V43.287h21.3645l-.00233,13.34078ZM50.08476,64.263,50.08165,81.9163,30.90021,73.09276ZM46.999,85.62751,28.72026,94.0358V77.22Zm3.08581,3.71354L50.082,106.23221,31.72876,97.78585Zm-3.14369,20.57789-18.22081,8.38538V101.534Zm3.14369,3.68713-.00311,17.38565-18.88505-8.695Zm-3.02638,21.12677-18.33812,8.44131V126.29231Zm3.02638,3.74189-.00272,17.6968-19.228-8.84529Zm-3.13631,21.38859-18.22819,8.38654V151.4764Zm3.13631,3.55312L50.082,178.466H28.72026v-5.22187ZM143.31167,50.279V43.287h4.57291a2.3897,2.3897,0,0,0,2.40134-2.03877,2.33147,2.33147,0,0,0-2.3129-2.62257H11.62866V27.3607H169.726l.04661,11.26492H156.5587a2.38971,2.38971,0,0,0-2.40134,2.03877,2.33147,2.33147,0,0,0,2.3129,2.62257H162.734v6.992Zm9.30641,43.79529,31.527,25.73645h-63.054Zm35.75327,63.41567h-71.474V124.47205h71.474Z"/></svg>