<?xml version="1.0" encoding="utf-8"?>
<!-- Generator: Adobe Illustrator 24.3.0, SVG Export Plug-In . SVG Version: 6.00 Build 0)  -->
<svg version="1.1" id="Layer_1" xmlns="http://www.w3.org/2000/svg" xmlns:xlink="http://www.w3.org/1999/xlink" x="0px" y="0px"
	 viewBox="0 0 173.3 197.8" style="enable-background:new 0 0 173.3 197.8;" xml:space="preserve">
<style type="text/css">
	.st0{fill:#FFFFFF;}
</style>
<path d="M135.6,27.3h-2.3c-1.3,0-2.4,1.1-2.4,2.4s1.1,2.4,2.4,2.4h2.4c1.3,0,2.4-1.1,2.4-2.4S136.9,27.3,135.6,27.3L135.6,27.3z"/>
<path d="M126,27.3H74.8c-1.3,0-2.4,1.1-2.4,2.4s1.1,2.4,2.4,2.4l0,0H126c1.3,0,2.4-1.1,2.4-2.4S127.4,27.3,126,27.3L126,27.3z"/>
<path d="M154.8,89.7L154.8,89.7c3-1,5.4-3.3,6.6-6.3c0.5-1.2-0.1-2.6-1.3-3.1s-2.6,0.1-3.1,1.3l0,0c-0.9,2.3-3.2,3.8-5.7,3.8
	c-3.4,0-6.2-2.8-6.2-6.2c0-3.4,2.8-6.2,6.2-6.2c1.3,0,2.4-1.1,2.4-2.4V52.3l0,0h9.7c1.3,0,2.4-1.1,2.4-2.4l0,0l0,0v-9.5l0,0h5.1
	c1.3,0,2.4-1.1,2.4-2.4l0,0l0,0l0,0l-0.1-16.6c0-1.2-0.9-2.2-2-2.4l0,0L47.3,0l0,0c-0.1,0-0.2,0-0.4,0H20c-0.7,0-1.3,0.3-1.8,0.8
	L0.6,19.7c-0.4,0.4-0.6,1-0.6,1.6v16.6c0,1.3,1.1,2.4,2.4,2.4h15.2l0,0v140l0,0c-7.7,0.8-13.6,7.3-13.6,15c0,1.3,1.1,2.4,2.4,2.4
	h53.8c1.3,0,2.4-1.1,2.4-2.4l0,0c0-7.6-5.7-14.1-13.3-15l0,0v-140l0,0h86.8l0,0v9.5c0,1.3,1.1,2.4,2.4,2.4h10.2l0,0v16.3l0,0
	c-5.9,1.4-9.6,7.3-8.2,13.2c0.8,3.4,3.1,6.2,6.4,7.6l0,0C149.5,90.1,152.2,90.3,154.8,89.7L154.8,89.7z"/>
<polygon class="st0" points="139.1,18.9 49.4,18.9 49.4,5.2 "/>
<polygon class="st0" points="44.6,18.9 27.6,18.9 44.5,7 "/>
<polygon class="st0" points="22.4,4.8 39.3,4.8 22.4,16.7 "/>
<polygon class="st0" points="17.6,8.6 17.6,19 8,19 "/>
<path d="M57.5,192.9H9.1c1.1-4.6,5.3-7.9,10-7.9h28.3C52.3,185,56.4,188.3,57.5,192.9L57.5,192.9z"/>
<polygon class="st0" points="41.5,58 22.5,66.8 22.5,49.2 "/>
<polygon class="st0" points="22.5,43.9 22.5,40.3 44.6,40.3 44.6,54.1 "/>
<polygon class="st0" points="44.6,61.9 44.6,80.2 24.7,71 "/>
<polygon class="st0" points="41.4,84 22.5,92.7 22.5,75.3 "/>
<polygon class="st0" points="44.6,87.8 44.6,105.3 25.6,96.6 "/>
<polygon class="st0" points="41.3,109.1 22.4,117.8 22.4,100.4 "/>
<polygon class="st0" points="44.5,113 44.5,131 25,122 "/>
<polygon class="st0" points="41.4,134.8 22.4,143.5 22.4,126 "/>
<polygon class="st0" points="44.5,138.7 44.5,157 24.6,147.8 "/>
<polygon class="st0" points="41.3,160.8 22.4,169.5 22.4,152.1 "/>
<polygon class="st0" points="44.5,164.6 44.5,180.2 22.4,180.2 22.4,174.8 "/>
<path d="M141.1,47.4v-7.1h4.8c1.3,0,2.4-1.1,2.4-2.4c0-1.3-1.1-2.4-2.4-2.4H4.8V23.7h163.6v11.7h-13.8c-1.3,0-2.4,1.1-2.4,2.4
	c0,1.3,1.1,2.4,2.4,2.4h6.3v7.1L141.1,47.4z"/>
</svg>
