<?xml version="1.0" encoding="utf-8"?>
<!-- Generator: Adobe Illustrator 24.3.0, SVG Export Plug-In . SVG Version: 6.00 Build 0)  -->
<svg version="1.1" id="Layer_1" xmlns="http://www.w3.org/2000/svg" xmlns:xlink="http://www.w3.org/1999/xlink" x="0px" y="0px"
	 viewBox="0 0 173.3 197.8" style="enable-background:new 0 0 173.3 197.8;" xml:space="preserve">
<style type="text/css">
	.st0{fill:url(#SVGID_1_);}
</style>
<linearGradient id="SVGID_1_" gradientUnits="userSpaceOnUse" x1="-26.6493" y1="165.6527" x2="145.9739" y2="-6.9705">
	<stop  offset="0" style="stop-color:#F83600"/>
	<stop  offset="1" style="stop-color:#F9D423"/>
</linearGradient>
<path class="st0" d="M135.6,27.3h-2.3c-1.3,0-2.4,1.1-2.4,2.4c0,1.3,1.1,2.4,2.4,2.4h2.4c1.3,0,2.4-1.1,2.4-2.4
	S136.9,27.3,135.6,27.3L135.6,27.3z M126,27.3H74.8c-1.3,0-2.4,1.1-2.4,2.4c0,1.3,1.1,2.4,2.4,2.4l0,0H126c1.3,0,2.4-1.1,2.4-2.4
	S127.4,27.3,126,27.3L126,27.3z M154.8,89.7L154.8,89.7c3-1,5.4-3.3,6.6-6.3c0.5-1.2-0.1-2.6-1.3-3.1s-2.6,0.1-3.1,1.3l0,0
	c-0.9,2.3-3.2,3.8-5.7,3.8c-3.4,0-6.2-2.8-6.2-6.2c0-3.4,2.8-6.2,6.2-6.2c1.3,0,2.4-1.1,2.4-2.4V52.3c0,0,0,0,0,0h9.7
	c1.3,0,2.4-1.1,2.4-2.4c0,0,0,0,0,0l0,0v-9.5c0,0,0,0,0,0h5.1c1.3,0,2.4-1.1,2.4-2.4c0,0,0,0,0,0v0l0,0l-0.1-16.6
	c0-1.2-0.9-2.2-2-2.4v0L47.3,0v0c-0.1,0-0.2,0-0.4,0H20c-0.7,0-1.3,0.3-1.8,0.8L0.6,19.7c-0.4,0.4-0.6,1-0.6,1.6v16.6
	c0,1.3,1.1,2.4,2.4,2.4h15.2c0,0,0,0,0,0l0,140c0,0,0,0,0,0c-7.7,0.8-13.6,7.3-13.6,15c0,1.3,1.1,2.4,2.4,2.4h53.8
	c1.3,0,2.4-1.1,2.4-2.4l0,0c0-7.6-5.7-14.1-13.3-15c0,0,0,0,0,0l0-140c0,0,0,0,0,0h86.8c0,0,0,0,0,0v9.5c0,1.3,1.1,2.4,2.4,2.4h10.2
	c0,0,0,0,0,0v16.3c0,0,0,0,0,0c-5.9,1.4-9.6,7.3-8.2,13.2c0.8,3.4,3.1,6.2,6.4,7.6l0,0C149.5,90.1,152.2,90.3,154.8,89.7L154.8,89.7
	z M139.1,18.9H49.4l0-13.7L139.1,18.9z M44.6,18.9H27.6L44.5,7L44.6,18.9z M22.4,4.8h16.9L22.4,16.7L22.4,4.8z M17.6,8.6l0,10.4H8
	L17.6,8.6z M57.5,192.9H9.1c1.1-4.6,5.3-7.9,10-7.9h28.3C52.3,185,56.4,188.3,57.5,192.9L57.5,192.9z M41.5,58l-19,8.8V49.2L41.5,58
	z M22.5,43.9v-3.6h22.1l0,13.8L22.5,43.9z M44.6,61.9l0,18.3L24.7,71L44.6,61.9z M41.4,84l-18.9,8.7V75.3L41.4,84z M44.6,87.8
	l0,17.5l-19-8.7L44.6,87.8z M41.3,109.1l-18.9,8.7v-17.4L41.3,109.1z M44.5,113l0,18l-19.5-9L44.5,113z M41.4,134.8l-19,8.7v-17.5
	L41.4,134.8z M44.5,138.7l0,18.3l-19.9-9.2L44.5,138.7z M41.3,160.8l-18.9,8.7v-17.4L41.3,160.8z M44.5,164.6l0,15.6H22.4v-5.4
	L44.5,164.6z M141.1,47.4v-7.1h4.8c1.3,0,2.4-1.1,2.4-2.4c0-1.3-1.1-2.4-2.4-2.4H4.8V23.7h163.6l0,11.7h-13.8
	c-1.3,0-2.4,1.1-2.4,2.4c0,1.3,1.1,2.4,2.4,2.4h6.3v7.1L141.1,47.4z"/>
</svg>
