<svg id="Layer_1" data-name="Layer 1" xmlns="http://www.w3.org/2000/svg" xmlns:xlink="http://www.w3.org/1999/xlink" viewBox="0 0 200 200"><defs><style>.cls-1{fill:url(#linear-gradient);}.cls-2{fill:#fff;}</style><linearGradient id="linear-gradient" x1="30.34998" y1="169.40186" x2="169.65002" y2="30.10183" gradientUnits="userSpaceOnUse"><stop offset="0" stop-color="#f83600"/><stop offset="1" stop-color="#f9d423"/></linearGradient></defs><circle class="cls-1" cx="100" cy="99.75184" r="98.5"/><path class="cls-2" d="M19.07181,75.12261H34.23187V86.961h8.27486V75.12261H69.989V75.183a.725.725,0,0,0,.72487.72486h2.778v3.8146c-.47714.04621-.94274.10277-1.38921.17167,0,4.7719.30189,10.44929.30189,10.44929h.59311l-1.46856,8.09385-.14981,96.83162,11.45348,2.29069L83.579,98.43724,81.9938,90.34339h.55843A61.49645,61.49645,0,0,0,84.66634,79.8941s-.83364-.087-2.12924-.17424v-3.812h1.40433a.725.725,0,0,0,.72491-.72486v-.19018l77.79228,1.30915v1.90245a.72483.72483,0,0,0,.7247.72487h.5592l-.192,21.20087a1.44469,1.44469,0,0,0-.42456,1.0248v4.95294a1.44976,1.44976,0,0,0,1.44978,1.44957h.18a.868.868,0,0,0,.01791.11987l.0062.02631.01432.06251c.0022.01216.00716.01934.01132.04324l.013.09376a1.51523,1.51523,0,0,1,.00636.25988,1.76655,1.76655,0,0,1-.04663.324,1.29377,1.29377,0,0,1-.15689.33338c-.04462.10493-.26587.329-.41543.55977a3.83189,3.83189,0,0,0-.425.77964,2.01154,2.01154,0,0,0-.1348,1.08137,1.50937,1.50937,0,0,0,.65635.965,1.71272,1.71272,0,0,0,.99115.28178,1.89421,1.89421,0,0,0,1.44957-.747,1.62035,1.62035,0,0,0,.279-.605,1.50984,1.50984,0,0,0,.03006-.501,1.39741,1.39741,0,0,0-.05734-.30548l-.02789-.10478a.3013.3013,0,0,0-.59127.104l.00519.05776.0064.07247a.796.796,0,0,1,.00657.19838.82494.82494,0,0,1-.06079.28076.86486.86486,0,0,1-.19853.29516,1.08638,1.08638,0,0,1-.36322.22424,1.00939,1.00939,0,0,1-.45463.04939.627.627,0,0,1-.36009-.17049.32479.32479,0,0,1-.12407-.26445.94574.94574,0,0,1,.13981-.3704,2.59445,2.59445,0,0,1,.34492-.44529c.07012-.07647.127-.12667.20214-.19874a2.55131,2.55131,0,0,0,.26725-.26866,2.852,2.852,0,0,0,.47734-.69622,3.33461,3.33461,0,0,0,.22008-.66553,3.19032,3.19032,0,0,0,.07248-.52772q.0033-.11208.00538-.19915c.00019-.05-.00339-.1-.0062-.14279h.013a1.44976,1.44976,0,0,0,1.44978-1.44957v-4.95294a1.438,1.438,0,0,0-.30229-.87683l.19315-21.34884h.77051a.725.725,0,0,0,.72488-.72487V76.41882l4.935.08309a1.62083,1.62083,0,0,0,2.9097.049l4.9328.083-5.07717-7.127-38.98886-.54247c-.20136-.383-.54745-1.03915-.75-1.41033-.3758-.68845-.95131-1.71125-1.70565-1.71125-.47418,0-.79959.29393-1.13016.77149L80.54407,42.29628v-.81647a1.75207,1.75207,0,0,0-.64644-1.24467,3.81642,3.81642,0,0,0-4.098,0,1.75186,1.75186,0,0,0-.64639,1.24467v1.1777a.65155.65155,0,0,0,.02907.1892L39.181,67.21021H19.07181ZM164.105,78.92925h.55818v-.06052a.72481.72481,0,0,1,.72491-.72471h1.05706a.7248.7248,0,0,1,.72487.72471v.06052h.377l-.19018,21.01152a1.43929,1.43929,0,0,0-.788-.23541h-1.993a1.43306,1.43306,0,0,0-.66039.16612ZM81.76679,183.53871l-7.03018-.02072,7.03018-3.93626Zm0-11.29505-7.03059-.02072,7.03059-3.93629Zm0-11.29508-7.03059-.02032,7.03059-3.93666Zm0-11.29464-7.03136-.02072,7.03136-3.93707Zm0-11.29509-7.03136-.02068,7.03136-3.9367Zm0-11.295-7.03218-.02072,7.03218-3.93748Zm0-11.29545-7.03218-.02072,7.03218-3.93687Zm0-11.29468L74.7342,104.453l7.03259-3.93728Zm0,90.35972-7.02977-.02031,7.02977-3.9363ZM73.3414,190.2467h7.32612l-7.32612,4.102Zm8.42539-1.71745-7.00828-3.9239,7.00828.02031Zm-8.42539-9.57764h7.32612l-7.32612,4.102Zm8.42539-1.717-7.00906-3.92434,7.00906.02071Zm-8.42539-9.578h7.32572l-7.32572,4.102Zm8.42539-1.71663-7.00906-3.92471,7.00906.02072Zm-8.42539-9.57841h7.32531l-7.32531,4.102Zm8.42539-1.71663-7.00988-3.92435,7.00988.02031Zm-8.42539-9.578h7.32494L73.3414,149.168Zm8.42539-1.71663-7.00988-3.92472,7.00988.02072Zm-8.42539-9.57842h7.32453l-7.32453,4.10115Zm8.42539-1.71663-7.01028-3.92475,7.01028.02071Zm-8.42539-9.57882h7.32453l-7.32453,4.10078Zm8.42539-1.71586L74.7561,116.835l7.01069.02072Zm-8.42539-9.57862h7.32372l-7.32372,4.10058Zm8.42539-1.71581-7.011-3.92553,7.011.02051Zm-8.42539-5.47866v-3.73816h6.6761Zm8.42539,98.76077M73.3414,185.05778l7.32572,4.1016H73.3414Zm0-11.29464,7.32531,4.10115H73.3414Zm0-11.29468,7.32494,4.10119H73.3414Zm0-11.29505,7.32453,4.10115H73.3414Zm0-11.29468,7.32453,4.10079H73.3414Zm0-11.295,7.32372,4.10078H73.3414Zm0-11.29468,7.32372,4.1H73.3414Zm0-11.29485,7.32294,4.10038H73.3414ZM20.15876,68.29736h6.22086v.66455h-.12028a3.62,3.62,0,0,0-3.02541,1.63078H20.15876Zm40.95158,2.29533H55.25113V68.29736h5.85921Zm1.087-2.29533h6.76492v2.29533H62.1973Zm-31.1577,3.02h2.07227l-1.84049,1.24606A3.62223,3.62223,0,0,0,31.0396,71.31735Zm-3.57307-2.35544v-.66455h5.85921v2.29533H30.67356a3.62,3.62,0,0,0-3.02541-1.63078Zm12.80539-.66455v2.29533H35.47653l3.39141-2.29533Zm1.08691,0h5.85922v2.29533H41.35883Zm6.94617,0h5.85922v2.29533H48.305Zm12.80534,3.02v2.71814H55.25113V71.31735Zm-6.94612,2.71814H48.305V71.31735h5.85922Zm-6.94617,0H41.35883V71.31735h5.85922Zm-12.80535,0V71.31735h5.85922v2.71814Zm-1.087,0H31.2722v-.59782L33.32574,72.048Zm4.249-5.73813-3.162,2.13978V68.29736Zm2.9-1.08715L75.673,43.39l.556,4.60346-2.561,24.061H70.71389a.72423.72423,0,0,0-.66435.43632V67.21021ZM74.5793,79.35064V77.223l1.64452,1.64734-.41384.48032Zm3.66063,0-.53407-.53469,2.03642-2.36307h1.7075v2.89776Zm-1.30437-1.30638-1.58877-1.59138h2.96007ZM75.2062,67.8688l3.8801,4.18561H74.76092Zm1.19165-11.19292,3.256,3.81741-4.14577,4.5395Zm2.12925-8.91069L77.38162,47.436l.40389-3.79632.32461.05538Zm-1.38126,1.8825,1.64334,2.2766-2.09976,2.01416Zm1.61267.376L77.79269,48.685l.85391.24552Zm.90212,8.80155-2.923-3.42665,2.34157-2.24634ZM81.016,72.05441h-.44729l-5.03756-5.43464,4.431-4.85155Zm81.154,2.793-6.00955-.10114,2.37-3.923Zm-8.73543-.14694-5.11543-.08626,2.24952-3.79747ZM145.68451,74.57l-5.13631-.08643,2.54068-3.77895Zm-7.83851-.132-4.79481-.08063,2.30829-3.71165Zm-7.51711-.12643-5.56846-.0936,2.77528-3.79094Zm-8.35447-.14062-5.38448-.09059,2.81133-3.74632Zm-7.97435-.13423-4.0038-.06729,2.29994-3.50834Zm-6.66635-.11211-4.69721-.079,2.34214-3.61887Zm-7.25242-.12207-4.5393-.07627,2.53392-3.57164Zm-9.964-4.05119,2.65737,3.9283-5.53221-.09319Zm1.26856-.71194,5.64771.07847-2.86329,4.03683Zm7.7905.10853,4.73107.0657-2.53869,3.92215Zm6.895.0958,5.24145.07289-2.63527,4.0197Zm7.299.10156,4.90929.06831-2.98279,3.97451Zm7.18031.09976,5.84768.08144-3.02379,4.12987Zm8.146.11334,5.58379.07765-2.56376,4.12228Zm13.29186.185-2.77825,4.132-2.75974-4.20911Zm2.22187.03087,5.24765.07288-2.43672,4.11351Zm7.46732.10392,5.68238.07908L154.8284,74.1474Zm14.86669.20674-2.68327,4.1332h-.30609l-3.82377-4.228Zm9.46491.13181-2.844,4.37184L168.98,70.11873Zm1.16579.8659,3.43706,4.07509-3.33628-.05616a1.60834,1.60834,0,0,0-2.24136-.72829Zm-7.77038,3.88667v-.02647a.72483.72483,0,0,0-.72487-.72471h-3.091l2.14719-3.30678,3.83372,4.09422Zm-84.73845-1.426v-.76394a.725.725,0,0,0-.7249-.72487h-1.8325L79.69571,48.502l.35923-5.16938a.75785.75785,0,0,0,.37359-.29332l53.7128,24.19481-.04042.06811a12.93865,12.93865,0,0,0-.76631,1.59574l-43.07471-.59921-.44406-.01232L85.90061,73.5639Zm-15.70412.49227H62.1973V71.31735h6.76492Zm-48.80346,0V71.31735h2.70913a3.60473,3.60473,0,0,0-.2326,1.26857v1.44957Z"/></svg>