<svg xmlns="http://www.w3.org/2000/svg" xmlns:xlink="http://www.w3.org/1999/xlink" viewBox="0 0 400 100"><defs><style>.cls-1{fill:url(#linear-gradient);}.cls-2{fill:#fff;}</style><linearGradient id="linear-gradient" x1="11.72426" y1="72.71868" x2="58.67717" y2="25.76578" gradientUnits="userSpaceOnUse"><stop offset="0" stop-color="#f83600"/><stop offset="1" stop-color="#f9d423"/></linearGradient></defs><g id="crane"><path d="M102.22633,46.08133c-1.56769,3.048-3.61425,6.79276-4.48574,8.18626L90.94782,65.503H87.42039L84.93808,54.39864c-.34837-1.48086-1.00144-5.22562-1.56768-8.27418-.4352,3.17906-.95831,6.837-1.263,8.14313L79.62509,65.634l-5.05089-.74043L81.58484,36.37h4.09368l3.61425,17.985c.26155,1.48087.60993,3.26643.82725,4.92093.87094-1.61082,1.74188-3.3527,2.6565-4.92093L103.35828,36.37h4.05l-3.26588,29.133h-5.1388l1.65505-11.10432C100.91965,52.70045,101.6164,49.12934,102.22633,46.08133Z"/><path d="M123.042,43.81634a12.45739,12.45739,0,0,1,5.18194,1.04513l2.74387.17473-1.95975,10.14656a22.19393,22.19393,0,0,0-.43574,4.04945,8.20627,8.20627,0,0,0,1.56823,5.13826l-3.91949,1.56823a6.505,6.505,0,0,1-1.48087-4.31155c0-.74043.13105-1.9592.30524-3.48375l-.74043,1.74188c-2.00343,4.57256-4.65938,5.96606-7.70794,5.96606-4.13681,0-5.79187-3.57112-5.79187-7.18483C110.8052,50.43547,115.20357,43.81634,123.042,43.81634Zm2.56968,3.789a5.97869,5.97869,0,0,0-2.48231-.43574c-5.22563,0-7.14169,6.66281-7.14169,11.67056,0,2.526.73989,3.44007,2.22075,3.44007,2.96119,0,5.8787-7.31588,6.79332-11.67Z"/><path d="M145.16437,48.21471c-1.61082,0-3.2222,3.30957-4.1805,6.61968L138.89362,65.503h-4.87725l2.2213-10.97327a21.59607,21.59607,0,0,0,.47888-4.31155c0-3.179-.82726-4.48519-1.08881-4.92093l3.96263-1.56769a5.50252,5.50252,0,0,1,1.13249,3.70162c0,1.21932-.26155,2.787-.39206,4.13682,1.21932-5.22562,3.0917-7.79475,6.31444-7.79475a4.247,4.247,0,0,1,3.83212,1.785l-2.526,4.05A3.56675,3.56675,0,0,0,145.16437,48.21471Z"/><path d="M170.72625,48.2584c0,5.574-2.39494,11.71424-6.22707,14.937-2.22075,1.87183-4.35468,2.65595-7.96948,2.65595-3.6574,0-5.61714-1.56715-5.61714-4.96462a32.8099,32.8099,0,0,1,.39151-3.61371l2.526-13.10829h4.74675L156.0945,57.142c-.08682.52311-.30469,2.17762-.30469,2.61336,0,1.61082.82725,2.69963,2.39494,2.69963,4.00631,0,7.79475-8.53573,7.79475-14.50124a16.91881,16.91881,0,0,0-.261-3.04856L169.899,43.86A10.83365,10.83365,0,0,1,170.72625,48.2584Z"/><path d="M191.54248,48.34522c0,5.052-5.53032,8.57942-13.28248,8.97147-.04369.522-.04369,1.04513-.04369,1.52346,0,2.69964,1.263,3.6148,3.17906,3.6148,2.26444,0,6.61967-1.78556,6.61967-1.78556l1.00145,3.13538a22.68994,22.68994,0,0,1-8.62256,2.17762c-5.48718,0-7.27219-3.57112-7.27219-7.2722,0-8.231,4.35414-15.06749,12.15-15.06749C189.75692,43.6427,191.54248,45.4714,191.54248,48.34522Zm-4.92094.78412c0-1.34982-.69675-2.13394-2.35125-2.13394-2.70073,0-4.57311,3.44007-5.48773,7.18592C183.9645,53.87608,186.62154,51.1759,186.62154,49.12934Z"/><path d="M197.11648,65.72029c-2.69964,0-4.04945-1.4361-4.04945-3.6574a5.79017,5.79017,0,0,1,.13-1.21985l5.09566-26.04076,4.91984-.87094L198.1616,60.3647a4.31668,4.31668,0,0,0-.08736.69675c0,.783.392,1.08881,1.17617,1.08881a9.26948,9.26948,0,0,0,2.43863-.34837v3.13537A12.954,12.954,0,0,1,197.11648,65.72029Z"/><path d="M211.79191,65.98239c-5.48663,0-7.27219-3.57112-7.27219-7.2722,0-8.231,4.35523-15.06749,12.14944-15.06749,5.53141,0,7.27219,3.57057,7.27219,7.27219C223.94135,59.23221,219.6309,65.98239,211.79191,65.98239Zm1.00144-3.3538c3.83213,0,5.96606-7.2285,5.96606-12.01839,0-2.70018-1.17508-3.6148-3.09169-3.6148-3.83212,0-5.96606,7.18592-5.96606,12.01949C209.70166,61.71452,210.87784,62.62859,212.79335,62.62859Z"/><path d="M233.52221,43.86a10.81575,10.81575,0,0,1,.8278,4.39837c0,4.05-2.61335,7.40269-2.61335,11.19223,0,1.39241.56679,2.48121,2.35235,2.48121,3.13537,0,6.27075-6.05233,7.18482-10.84276l1.34982-6.92436h4.87725l-2.30758,10.97436a19.33268,19.33268,0,0,0-.47942,4.04945,8.16027,8.16027,0,0,0,1.61082,5.18194l-3.96208,1.56823a6.50215,6.50215,0,0,1-1.48087-4.31155c0-.78411.13105-2.00288.30469-3.48375l-.74043,1.74188c-1.74187,4.00686-4.65883,5.96606-8.14258,5.96606-3.83213,0-5.53032-2.09025-5.53032-5.313,0-4.57146,2.87328-8.4915,2.87328-12.58463a13.824,13.824,0,0,0-.261-3.04856Z"/><path d="M252.07346,50.21814c0-3.70162,2.787-6.57544,8.14367-6.57544,3.61371,0,5.313,1.91552,5.74764,4.13682l-3.6137,1.43718c-.43575-1.08881-.61048-2.265-2.48231-2.265a2.5019,2.5019,0,0,0-2.74332,2.526c0,1.61137,1.3935,2.61281,2.35126,3.13538l1.26245.69675c1.91661,1.04512,3.6148,2.265,3.6148,5.835,0,3.74585-2.87437,6.83755-8.40468,6.83755a15.72645,15.72645,0,0,1-7.14115-2.09025l1.91552-3.44116s3.17906,2.004,5.35668,2.004c2.17652,0,3.26533-1.13249,3.26533-2.48231,0-1.9592-1.26245-2.83068-2.65595-3.57111l-1.08881-.5657A5.62233,5.62233,0,0,1,252.07346,50.21814Z"/><path d="M292.96329,39.59271c-6.22706,0-8.97038,9.49294-8.97038,16.06838,0,3.78954,1.30613,6.61913,5.48663,6.61913a13.21524,13.21524,0,0,0,5.444-1.00144l.783,3.31011a17.204,17.204,0,0,1-7.70793,1.47977c-6.74909,0-9.57977-3.52743-9.57977-9.62345,0-10.49493,5.09457-20.64149,15.37218-20.64149,4.00577,0,5.48664,2.2213,5.87869,4.52887l-3.8758,1.74188A2.778,2.778,0,0,0,292.96329,39.59271Z"/><path d="M311.21094,48.21471c-1.61192,0-3.22275,3.30957-4.1805,6.61968L304.94019,65.503h-4.87725l2.2202-10.97327a21.60115,21.60115,0,0,0,.47943-4.31155c0-3.179-.8278-4.48519-1.08881-4.92093l3.96318-1.56769a5.50276,5.50276,0,0,1,1.1314,3.70162c0,1.21932-.261,2.787-.39206,4.13682,1.21986-5.22562,3.09278-7.79475,6.31443-7.79475a4.24575,4.24575,0,0,1,3.83213,1.785l-2.5249,4.05A3.56762,3.56762,0,0,0,311.21094,48.21471Z"/><path d="M328.54232,43.81634a12.45739,12.45739,0,0,1,5.18194,1.04513l2.74332.17473-1.9592,10.14656a22.19393,22.19393,0,0,0-.43574,4.04945,8.20286,8.20286,0,0,0,1.56823,5.13826l-3.91949,1.56823a6.50215,6.50215,0,0,1-1.48087-4.31155c0-.74043.13105-1.9592.30469-3.48375l-.73934,1.74188c-2.004,4.57256-4.65992,5.96606-7.70793,5.96606-4.13682,0-5.79242-3.57112-5.79242-7.18483C316.30551,50.43547,320.70443,43.81634,328.54232,43.81634Zm2.56968,3.789a5.97716,5.97716,0,0,0-2.48231-.43574c-5.22563,0-7.14224,6.66281-7.14224,11.67056,0,2.526.74044,3.44007,2.2213,3.44007,2.96065,0,5.8787-7.31588,6.79386-11.67Z"/><path d="M357.3264,65.503h-4.83357a14.12241,14.12241,0,0,1-.17364-2.61227c0-4.52887,2.5249-8.8841,2.5249-12.67255,0-1.3935-.5657-2.4823-2.35126-2.4823-3.13538,0-6.27075,6.09656-7.18483,10.8433L343.95819,65.503h-4.87725l2.22021-10.97327a21.60178,21.60178,0,0,0,.47942-4.31155c0-3.179-.8278-4.48519-1.08881-4.92093l3.96318-1.56769a5.50276,5.50276,0,0,1,1.1314,3.70162,30.45593,30.45593,0,0,1-.39206,4.09314l.74043-1.74188c1.74188-4.00631,4.65993-5.96606,8.14368-5.96606,3.83212,0,5.53032,2.09025,5.53032,5.313,0,4.57255-2.83069,8.75305-2.83069,12.19312A24.23519,24.23519,0,0,0,357.3264,65.503Z"/><path d="M381.27691,48.34522c0,5.052-5.53032,8.57942-13.28085,8.97147-.04368.522-.04368,1.04513-.04368,1.52346,0,2.69964,1.26245,3.6148,3.178,3.6148,2.265,0,6.62022-1.78556,6.62022-1.78556l1.00144,3.13538a22.69789,22.69789,0,0,1-8.6231,2.17762c-5.48664,0-7.2722-3.57112-7.2722-7.2722,0-8.231,4.35524-15.06749,12.14945-15.06749C379.49135,43.6427,381.27691,45.4714,381.27691,48.34522Zm-4.91984.78412c0-1.34982-.69675-2.13394-2.35236-2.13394-2.69963,0-4.57255,3.44007-5.48663,7.18592C373.7,53.87608,376.35707,51.1759,376.35707,49.12934Z"/><path d="M384.10868,50.21814c0-3.70162,2.787-6.57544,8.14368-6.57544,3.61371,0,5.313,1.91552,5.74764,4.13682l-3.61371,1.43718c-.43574-1.08881-.61047-2.265-2.48231-2.265a2.5019,2.5019,0,0,0-2.74331,2.526c0,1.61137,1.3935,2.61281,2.35125,3.13538l1.26245.69675c1.91661,1.04512,3.61481,2.265,3.61481,5.835,0,3.74585-2.87437,6.83755-8.40469,6.83755a15.72644,15.72644,0,0,1-7.14114-2.09025l1.91552-3.44116s3.17905,2.004,5.35667,2.004c2.17653,0,3.26533-1.13249,3.26533-2.48231,0-1.9592-1.26245-2.83068-2.656-3.57111l-1.0888-.5657A5.62234,5.62234,0,0,1,384.10868,50.21814Z"/><circle class="cls-1" cx="35.20072" cy="49.24223" r="33.20072"/><path class="cls-2" d="M7.92281,40.94062H13.0327v3.99027h2.78916V40.94062h9.26326V40.961a.24435.24435,0,0,0,.24433.24432h.93638v1.28576c-.16083.01558-.31777.03464-.46825.05787,0,1.60843.10175,3.52207.10175,3.52207h.19992l-.495,2.72814-.0505,32.63836,3.86055.77211.25151-33.41047L29.13149,46.071h.18823a20.729,20.729,0,0,0,.71259-3.52207s-.281-.02933-.71769-.05873v-1.2849H29.788a.24436.24436,0,0,0,.24434-.24432v-.0641l26.2209.44126v.64125a.24431.24431,0,0,0,.24427.24432H56.686l-.06471,7.146a.48694.48694,0,0,0-.1431.34542v1.66945a.48866.48866,0,0,0,.48866.4886h.06068a.29315.29315,0,0,0,.006.0404l.0021.00887.00482.02107.00382.01457.00437.03161a.50983.50983,0,0,1,.00215.08759.59587.59587,0,0,1-.01572.10923.43606.43606,0,0,1-.05288.11236c-.015.03537-.08962.11089-.14.18868a1.29176,1.29176,0,0,0-.14324.26279.67806.67806,0,0,0-.04544.36449.50875.50875,0,0,0,.22123.32528.57736.57736,0,0,0,.33409.095.63847.63847,0,0,0,.48859-.25178.54638.54638,0,0,0,.09405-.20392.50919.50919,0,0,0,.01013-.16888.47147.47147,0,0,0-.01933-.103l-.0094-.03532a.10156.10156,0,0,0-.1993.035l.00175.01946.00216.02443a.26818.26818,0,0,1,.00221.06687.27812.27812,0,0,1-.02048.09463.29175.29175,0,0,1-.06692.09949.36633.36633,0,0,1-.12243.07558.34022.34022,0,0,1-.15324.01665.21122.21122,0,0,1-.12137-.05747.10947.10947,0,0,1-.04182-.08913.3186.3186,0,0,1,.04712-.12485.87509.87509,0,0,1,.11626-.15009c.02364-.02578.04282-.0427.06814-.067a.862.862,0,0,0,.09008-.09055.96127.96127,0,0,0,.16089-.23468,1.12387,1.12387,0,0,0,.07418-.22432,1.07594,1.07594,0,0,0,.02443-.17788l.00181-.06712c.00007-.01686-.00114-.0337-.00209-.04813h.00437a.48866.48866,0,0,0,.48867-.4886V49.71516a.4847.4847,0,0,0-.10189-.29555l.0651-7.19591h.25971a.24436.24436,0,0,0,.24433-.24432v-.60185l1.6634.028a.54633.54633,0,0,0,.98076.01652l1.66266.028L61.19,39.04779l-13.1417-.18285c-.06787-.12908-.18453-.35026-.2528-.47537-.12666-.23205-.32065-.5768-.57491-.5768-.15983,0-.26951.09908-.38093.26L28.64284,29.87608v-.2752a.59055.59055,0,0,0-.21789-.41953,1.28636,1.28636,0,0,0-1.38129,0,.59045.59045,0,0,0-.21787.41953v.397a.21956.21956,0,0,0,.00979.06377l-12.13471,8.212H7.92281ZM56.80814,42.2237h.18814v-.0204a.2443.2443,0,0,1,.24434-.24427h.35629a.2443.2443,0,0,1,.24433.24427v.0204h.12706l-.0641,7.08221a.48507.48507,0,0,0-.2656-.07935h-.67178a.48307.48307,0,0,0-.22259.056ZM29.055,77.48369l-2.36962-.007L29.055,76.14994Zm0-3.80714-2.36976-.007L29.055,72.34278Zm0-3.80716-2.36976-.00685,2.36976-1.3269Zm0-3.807-2.37-.007,2.37-1.327Zm0-3.80715-2.37-.007,2.37-1.32692Zm0-3.80715-2.37029-.007L29.055,57.11392Zm0-3.80728-2.37029-.007,2.37029-1.327Zm0-3.807-2.37043-.007L29.055,49.4997Zm0,30.45693-2.36948-.00685L29.055,79.95708Zm-2.83989-1.546h2.46936l-2.46936,1.38262Zm2.83989-.57889-2.36224-1.3226,2.36224.00684Zm-2.83989-3.22827h2.46936l-2.46936,1.38263Zm2.83989-.57874-2.3625-1.32275,2.3625.007Zm-2.83989-3.2284h2.46922L26.21509,73.513Zm2.83989-.57862-2.3625-1.32287,2.3625.007Zm-2.83989-3.22853h2.46909l-2.46909,1.38262Zm2.83989-.57861L26.6922,66.4219l2.36278.00684Zm-2.83989-3.22841h2.469l-2.469,1.38236Zm2.83989-.57861L26.6922,62.61475l2.36278.007ZM26.21509,60.7091h2.46883l-2.46883,1.38234Zm2.83989-.57861L26.69207,58.8076l2.36291.007Zm-2.83989-3.22867h2.46883L26.21509,58.284Zm2.83989-.57835-2.36305-1.32316,2.36305.007Zm-2.83989-3.2286h2.46855L26.21509,54.477Zm2.83989-.57834-2.36317-1.32315,2.36317.00691Zm-2.83989-1.84665v-1.26h2.25026ZM29.055,83.95849m-2.83989-5.96278,2.46922,1.3825H26.21509Zm0-3.807,2.46909,1.38234H26.21509Zm0-3.807,2.469,1.38236h-2.469Zm0-3.80715,2.46883,1.38235H26.21509Zm0-3.807,2.46883,1.38223H26.21509Zm0-3.80714,2.46855,1.38222H26.21509Zm0-3.807,2.46855,1.382H26.21509Zm0-3.80707,2.46829,1.38208H26.21509ZM8.28918,38.64008H10.386v.224h-.04054a1.22016,1.22016,0,0,0-1.01975.54967H8.28918Zm13.80327.77367H20.11752v-.77367h1.97493Zm.36637-.77367H24.739v.77367H22.45882ZM11.95671,39.658h.69849l-.62037.42A1.22092,1.22092,0,0,0,11.95671,39.658Zm-1.20435-.79393v-.224h1.97492v.77367h-.894a1.22016,1.22016,0,0,0-1.01975-.54967Zm4.31622-.224v.77367H13.45224l1.14312-.77367Zm.36636,0h1.97493v.77367H15.43494Zm2.3413,0h1.97492v.77367H17.77624ZM22.09245,39.658v.91619H20.11752V39.658Zm-2.34129.91619H17.77624V39.658h1.97492Zm-2.34129,0H15.43494V39.658h1.97493Zm-4.31621,0V39.658h1.97492v.91619Zm-.36638,0h-.69217v-.20151l.69217-.4684Zm1.43217-1.93412-1.06579.72124v-.72124Zm.97747-.36644L27.001,30.24472l.18741,1.55165-.86322,8.11008h-.99572a.24411.24411,0,0,0-.22393.14706V38.27364Zm11.49542,4.0921v-.71716l.5543.55526-.13949.1619Zm1.23386,0-.18-.18023.68641-.7965h.57553v.97673Zm-.43966-.44034L26.891,41.389h.99773Zm-.5829-3.42977,1.30784,1.41082H26.69355Zm.40166-3.77272,1.09748,1.28671-1.39738,1.5301Zm.71769-3.00346-.3861-.111.13614-1.2796.10941.01867Zm-.46557.63452.55391.76736-.70775.67889Zm.54357.12673-.32554-.4512.28782.08275Zm.30408,2.96668-.98525-1.155.78925-.75716Zm.45685,4.45907h-.15077l-1.698-1.83182,1.49352-1.63528Zm27.354.94141-2.0256-.03409.79884-1.32229Zm-2.94439-.04953-1.72422-.02908.75823-1.28Zm-2.61228-.044L48.868,40.72522l.85637-1.27374Zm-2.64207-.0445-1.61616-.02718.778-1.25106Zm-2.53374-.04261-1.87693-.03155L44.482,39.3579Zm-2.816-.0474-1.81491-.03054.9476-1.26274Zm-2.68786-.04525-1.34953-.02268.77522-1.18253Zm-2.247-.03779-1.58325-.02664.78945-1.21979Zm-2.44452-.04114-1.53-.02571.85409-1.20387Zm-3.3585-1.36551.89571,1.32409-1.86471-.03141Zm.42759-.24,1.90364.02645-.96511,1.36067Zm2.62589.03659,1.59467.02214-.8557,1.322Zm2.324.03229,1.7667.02456-.88825,1.3549Zm2.46023.03423,1.65475.023L40.35674,40.356Zm2.42022.03362,1.971.02746-1.01921,1.392Zm2.74572.03821,1.8821.02617-.86416,1.38947Zm4.4802.06235-.93645,1.39275-.9302-1.41873Zm.74891.01041,1.76879.02456L51.04989,40.549Zm2.517.035,1.91532.02665-.85336,1.41236Zm5.011.06968L56.726,40.63574H56.6228L55.334,39.21063Zm3.19028.04443-.9586,1.47359L58.45133,39.254Zm.39294.29186,1.1585,1.37357-1.12453-.01893a.54211.54211,0,0,0-.75548-.24549Zm-2.61911,1.31005V40.88a.24431.24431,0,0,0-.24433-.24427H57.30834l.72374-1.11459,1.2922,1.38Zm-28.5622-.48066v-.2575a.24436.24436,0,0,0-.24434-.24432H29.1703l-.81341-7.93865.12108-1.74241a.25542.25542,0,0,0,.12592-.09887L46.7085,38.2817l-.01363.023a4.362,4.362,0,0,0-.25829.53786l-14.5189-.202L31.768,38.6364l-1.31968,1.77884ZM24.739,40.5742H22.45882V39.658H24.739Zm-16.44985,0V39.658h.91315a1.215,1.215,0,0,0-.0784.42759v.4886Z"/></g></svg>