<svg xmlns="http://www.w3.org/2000/svg" xmlns:xlink="http://www.w3.org/1999/xlink" viewBox="0 0 400 100"><defs><style>.cls-1{fill:url(#linear-gradient);}.cls-2{fill:#fff;}</style><linearGradient id="linear-gradient" x1="15.20702" y1="80.431" x2="78.09904" y2="17.53898" gradientUnits="userSpaceOnUse"><stop offset="0" stop-color="#f83600"/><stop offset="1" stop-color="#f9d423"/></linearGradient></defs><g id="sun"><circle class="cls-1" cx="46.65303" cy="48.98499" r="44.47137"/></g><g id="text"><path d="M124.28184,46.37594c-1.44983,2.81885-3.34253,6.28207-4.14849,7.5708L113.85129,64.3374h-3.26223l-2.29569-10.26946c-.32218-1.36953-.92615-4.83275-1.44982-7.6521-.40248,2.94-.88626,6.323-1.168,7.5309L103.37983,64.4586l-4.67115-.68477,6.48356-26.37912h3.7859l3.34252,16.63283c.24189,1.36953.56408,3.02085.76506,4.551.80546-1.48971,1.61092-3.10063,2.45677-4.551l9.78619-16.63283h3.74551L126.05385,64.3374h-4.75246L122.832,54.06794C123.0734,52.49742,123.71776,49.19479,124.28184,46.37594Z"/><path d="M143.53253,44.28125a11.52077,11.52077,0,0,1,4.79235.96655l2.53757.1616L149.05,54.79311a20.52543,20.52543,0,0,0-.403,3.745,7.58927,7.58927,0,0,0,1.45033,4.75194l-3.62481,1.45033a6.0159,6.0159,0,0,1-1.36953-3.98739c0-.68477.1212-1.8119.28229-3.22183l-.68477,1.61091c-1.8528,4.22878-4.30907,5.51751-7.12843,5.51751-3.82579,0-5.35642-3.30262-5.35642-6.64464C132.21572,50.40273,136.28341,44.28125,143.53253,44.28125Zm2.37648,3.50412a5.52914,5.52914,0,0,0-2.29568-.403c-4.83275,0-6.60475,6.16188-6.60475,10.79313,0,2.33608.68426,3.18144,2.05379,3.18144,2.73855,0,5.43671-6.76585,6.28257-10.79263Z"/><path d="M163.99167,48.34894c-1.48972,0-2.98,3.06074-3.8662,6.122l-1.9331,9.86648h-4.51056l2.05429-10.14826a19.97244,19.97244,0,0,0,.44288-3.9874,8.02661,8.02661,0,0,0-1.00695-4.551l3.66471-1.44982a5.08885,5.08885,0,0,1,1.04734,3.42332c0,1.12764-.24189,2.57746-.36258,3.8258,1.12764-4.83275,2.85925-7.20872,5.8397-7.20872a3.92774,3.92774,0,0,1,3.544,1.65081l-2.33608,3.7455A3.29859,3.29859,0,0,0,163.99167,48.34894Z"/><path d="M187.63173,48.38934c0,5.15493-2.21489,10.83353-5.7589,13.814-2.05379,1.7311-4.02729,2.45626-7.37032,2.45626-3.38242,0-5.19482-1.44931-5.19482-4.59136a30.343,30.343,0,0,1,.36207-3.342l2.33608-12.12277h4.38988L174.1,56.605c-.08029.48378-.28178,2.01389-.28178,2.41687,0,1.48972.76506,2.49667,2.21488,2.49667,3.70511,0,7.20872-7.894,7.20872-13.411a15.64626,15.64626,0,0,0-.24138-2.81935l3.8662-.96655A10.01907,10.01907,0,0,1,187.63173,48.38934Z"/><path d="M206.88293,48.46963c0,4.67216-5.11454,7.93439-12.28387,8.297-.0404.48277-.0404.96655-.0404,1.40892,0,2.49667,1.168,3.343,2.94,3.343,2.09419,0,6.122-1.65131,6.122-1.65131l.92616,2.89965a20.98414,20.98414,0,0,1-7.97429,2.01389c-5.07464,0-6.72545-3.30263-6.72545-6.72544,0-7.61221,4.02679-13.93468,11.23652-13.93468C205.23161,44.12066,206.88293,45.81187,206.88293,48.46963Zm-4.551.72516c0-1.24833-.64436-1.97349-2.17448-1.97349-2.49768,0-4.22929,3.18143-5.07514,6.64565C199.87468,53.58467,202.332,51.08749,202.332,49.19479Z"/><path d="M212.03786,64.53839c-2.49667,0-3.745-1.32812-3.745-3.38242a5.3551,5.3551,0,0,1,.12018-1.12815l4.71256-24.08293,4.54995-.80546-4.67115,24.446a3.99274,3.99274,0,0,0-.08079.64437c0,.72415.36258,1.007,1.08774,1.007a8.57212,8.57212,0,0,0,2.25528-.32219v2.89965A11.98,11.98,0,0,1,212.03786,64.53839Z"/><path d="M225.61,64.78078c-5.07414,0-6.72545-3.30263-6.72545-6.72544,0-7.61221,4.02779-13.93468,11.236-13.93468,5.11554,0,6.72545,3.30213,6.72545,6.72545C236.846,58.53811,232.85957,64.78078,225.61,64.78078Zm.92615-3.10164c3.544,0,5.51751-6.685,5.51751-11.11481,0-2.49718-1.08674-3.343-2.85925-3.343-3.544,0-5.51751,6.64565-5.51751,11.11582C223.67685,60.83379,224.76459,61.67914,226.5361,61.67914Z"/><path d="M245.7065,44.32165a10.00279,10.00279,0,0,1,.76556,4.06769c0,3.7455-2.41688,6.84614-2.41688,10.35076,0,1.28772.52418,2.29467,2.1755,2.29467,2.89964,0,5.79929-5.5973,6.64464-10.02757l1.24834-6.40377h4.51056l-2.13408,10.14928a17.87844,17.87844,0,0,0-.44338,3.745,7.54674,7.54674,0,0,0,1.48971,4.79234l-3.6642,1.45033a6.01329,6.01329,0,0,1-1.36953-3.98739c0-.72517.1212-1.8523.28179-3.22183l-.68477,1.61091c-1.61092,3.70561-4.30857,5.51751-7.5304,5.51751-3.544,0-5.11453-1.93309-5.11453-4.91354,0-4.22777,2.65725-7.85309,2.65725-11.63849a12.78481,12.78481,0,0,0-.24138-2.81935Z"/><path d="M262.863,50.20174c0-3.42332,2.57747-6.08108,7.53141-6.08108,3.342,0,4.91354,1.77151,5.31552,3.8258l-3.342,1.32913c-.403-1.007-.56458-2.09469-2.29568-2.09469a2.31381,2.31381,0,0,0-2.53707,2.33608c0,1.49022,1.28873,2.41637,2.17448,2.89965l1.16754.64436c1.77251.96655,3.343,2.0947,3.343,5.39632,0,3.46422-2.65827,6.32347-7.7728,6.32347a14.544,14.544,0,0,1-6.60424-1.9331l1.7715-3.18244s2.94,1.85331,4.95394,1.85331c2.01289,0,3.01984-1.04735,3.01984-2.29568,0-1.8119-1.16754-2.61786-2.45627-3.30263l-1.007-.52317A5.19961,5.19961,0,0,1,262.863,50.20174Z"/><path d="M300.67861,40.37516c-5.75889,0-8.296,8.77924-8.296,14.86032,0,3.50462,1.20793,6.12148,5.07413,6.12148a12.22153,12.22153,0,0,0,5.03474-.92616l.72416,3.06125a15.91053,15.91053,0,0,1-7.12843,1.36852c-6.24167,0-8.85953-3.26223-8.85953-8.89993,0-9.70589,4.71155-19.0896,14.21646-19.0896,3.7046,0,5.07413,2.05429,5.43671,4.18838l-3.58441,1.61091A2.5691,2.5691,0,0,0,300.67861,40.37516Z"/><path d="M317.55434,48.34894c-1.49072,0-2.98044,3.06074-3.86619,6.122l-1.9331,9.86648h-4.51057l2.05329-10.14826a19.97774,19.97774,0,0,0,.44338-3.9874,8.03125,8.03125,0,0,0-1.007-4.551l3.66521-1.44982a5.089,5.089,0,0,1,1.04634,3.42332c0,1.12764-.24138,2.57746-.36258,3.8258,1.12814-4.83275,2.86026-7.20872,5.83969-7.20872a3.92655,3.92655,0,0,1,3.544,1.65081l-2.33507,3.7455A3.29939,3.29939,0,0,0,317.55434,48.34894Z"/><path d="M333.5827,44.28125a11.5208,11.5208,0,0,1,4.79235.96655l2.53706.1616-1.8119,9.38371a20.52543,20.52543,0,0,0-.403,3.745,7.586,7.586,0,0,0,1.45033,4.75194l-3.62481,1.45033a6.01329,6.01329,0,0,1-1.36953-3.98739c0-.68477.1212-1.8119.28178-3.22183l-.68375,1.61091c-1.85331,4.22878-4.30958,5.51751-7.12843,5.51751-3.8258,0-5.35693-3.30262-5.35693-6.64464C322.26589,50.40273,326.33409,44.28125,333.5827,44.28125Zm2.37648,3.50412a5.52775,5.52775,0,0,0-2.29568-.403c-4.83275,0-6.60526,6.16188-6.60526,10.79313,0,2.33608.68477,3.18144,2.0543,3.18144,2.738,0,5.43671-6.76585,6.28307-10.79263Z"/><path d="M360.2027,64.3374h-4.47016a13.06023,13.06023,0,0,1-.16059-2.41587c0-4.18838,2.33507-8.21617,2.33507-11.71979,0-1.28873-.52317-2.29568-2.17448-2.29568-2.89965,0-5.7993,5.63821-6.64465,10.02808l-1.24833,6.40326H343.329l2.05329-10.14826a19.97774,19.97774,0,0,0,.44338-3.9874,8.03125,8.03125,0,0,0-1.007-4.551l3.66521-1.44982a5.089,5.089,0,0,1,1.04634,3.42332,28.167,28.167,0,0,1-.36258,3.7854l.68476-1.61092c1.61092-3.7051,4.30958-5.51751,7.53141-5.51751,3.544,0,5.11453,1.9331,5.11453,4.91354,0,4.22878-2.61786,8.095-2.61786,11.27641A22.41365,22.41365,0,0,0,360.2027,64.3374Z"/><path d="M382.35254,48.46963c0,4.67216-5.11453,7.93439-12.28235,8.297-.0404.48277-.0404.96655-.0404,1.40892,0,2.49667,1.16754,3.343,2.939,3.343,2.0947,0,6.12249-1.65131,6.12249-1.65131l.92615,2.89965a20.99143,20.99143,0,0,1-7.97479,2.01389c-5.07413,0-6.72545-3.30263-6.72545-6.72544,0-7.61221,4.0278-13.93468,11.236-13.93468C380.70123,44.12066,382.35254,45.81187,382.35254,48.46963Zm-4.54995.72516c0-1.24833-.64437-1.97349-2.1755-1.97349-2.49666,0-4.22878,3.18143-5.07413,6.64565C375.34531,53.58467,377.80259,51.08749,377.80259,49.19479Z"/><path d="M384.97141,50.20174c0-3.42332,2.57747-6.08108,7.53141-6.08108,3.342,0,4.91355,1.77151,5.31552,3.8258l-3.342,1.32913c-.403-1.007-.56458-2.09469-2.29568-2.09469a2.31381,2.31381,0,0,0-2.53707,2.33608c0,1.49022,1.28874,2.41637,2.17449,2.89965l1.16753.64436c1.77252.96655,3.343,2.0947,3.343,5.39632,0,3.46422-2.65826,6.32347-7.77279,6.32347a14.544,14.544,0,0,1-6.60425-1.9331l1.7715-3.18244s2.94005,1.85331,4.954,1.85331c2.01288,0,3.01983-1.04735,3.01983-2.29568,0-1.8119-1.16753-2.61786-2.45627-3.30263l-1.00694-.52317A5.1996,5.1996,0,0,1,384.97141,50.20174Z"/></g><g id="crane"><path class="cls-2" d="M10.11509,37.86523h6.84455v5.34485h3.736V37.86523H33.10349v.02726a.32731.32731,0,0,0,.32727.32726H34.685V39.942c-.21542.02086-.42563.0464-.62721.0775,0,2.15445.1363,4.71771.1363,4.71771h.26778l-.663,3.65427-.06764,43.71811L38.9023,93.1438l.33689-44.75233-.71571-3.65427h.25213a27.76481,27.76481,0,0,0,.95449-4.71771s-.37638-.03927-.96133-.07866V38.21975h.634a.32731.32731,0,0,0,.32729-.32726v-.08587l35.12212.59107v.85892a.32725.32725,0,0,0,.3272.32727h.25247l-.08668,9.5719a.65225.65225,0,0,0-.19168.46268v2.23619a.65454.65454,0,0,0,.65455.65446h.08127a.3917.3917,0,0,0,.00809.05412l.0028.01187.00646.02823.00512.01952.00586.04233a.683.683,0,0,1,.00287.11733.7971.7971,0,0,1-.02105.1463.584.584,0,0,1-.07083.15052c-.02015.04737-.12.14852-.18757.25273a1.73026,1.73026,0,0,0-.19187.352.90821.90821,0,0,0-.06086.48822.68147.68147,0,0,0,.29634.43571.77325.77325,0,0,0,.44749.12722.85517.85517,0,0,0,.65445-.33725.7316.7316,0,0,0,.126-.27315.68182.68182,0,0,0,.01357-.22621.63147.63147,0,0,0-.02589-.13792l-.01259-.0473a.136.136,0,0,0-.267.04693l.00234.02608.00289.03272a.35907.35907,0,0,1,.003.08956.37211.37211,0,0,1-.02744.12676.39047.39047,0,0,1-.08963.13326.49041.49041,0,0,1-.164.10124.4556.4556,0,0,1-.20526.0223.283.283,0,0,1-.16258-.077.14664.14664,0,0,1-.056-.11939.42677.42677,0,0,1,.06312-.16723,1.17089,1.17089,0,0,1,.15573-.201c.03165-.03452.05735-.05719.09126-.08973a1.15278,1.15278,0,0,0,.12066-.12129,1.28754,1.28754,0,0,0,.21551-.31434,1.50509,1.50509,0,0,0,.09936-.30047,1.4407,1.4407,0,0,0,.03273-.23826l.00243-.08992c.00008-.02257-.00153-.04513-.0028-.06446h.00585a.65454.65454,0,0,0,.65455-.65446V49.61846a.64923.64923,0,0,0-.13648-.39587l.08721-9.63871h.34787a.32732.32732,0,0,0,.32727-.32727v-.80615l2.22808.03751a.73179.73179,0,0,0,1.31369.02212l2.22709.03748-2.29227-3.21773L63.862,35.08492c-.09091-.1729-.24716-.46916-.33861-.63674-.16967-.31082-.4295-.77261-.77007-.77261-.21409,0-.361.13271-.51026.34832L37.869,23.04461V22.676a.791.791,0,0,0-.29186-.56195,1.723,1.723,0,0,0-1.85019,0,.791.791,0,0,0-.29184.56195v.53172a.29415.29415,0,0,0,.01313.08542L19.1941,34.2929h-9.079Zm65.48044,1.71865h.252v-.02733a.32723.32723,0,0,1,.32728-.32719h.47725a.32724.32724,0,0,1,.32727.32719v.02733h.1702l-.08587,9.48641a.64974.64974,0,0,0-.35577-.10629h-.89982a.64705.64705,0,0,0-.29816.075ZM38.421,86.81359l-3.174-.00936,3.174-1.77716Zm0-5.09956-3.17421-.00935L38.421,79.92749Zm0-5.09957-3.17421-.00917L38.421,74.82794Zm0-5.09937-3.17456-.00936L38.421,69.7282Zm0-5.09958-3.17456-.00933L38.421,64.62881Zm0-5.09955-3.17493-.00936L38.421,59.52888Zm0-5.09974-3.17493-.00936L38.421,54.42942Zm0-5.09939-3.17511-.00934L38.421,49.32987Zm0,40.79615-3.17384-.00917L38.421,90.12662Zm-3.80394-2.07083h3.30764l-3.30764,1.852Zm3.80394-.7754-3.16414-1.77159,3.16414.00917Zm-3.80394-4.32418h3.30764l-3.30764,1.852Zm3.80394-.7752L35.2565,82.19559l3.16449.00935ZM34.61705,79.643H37.9245l-3.30745,1.852Zm3.80394-.775L35.2565,77.096l3.16449.00936Zm-3.80394-4.32452h3.30727l-3.30727,1.852Zm3.80394-.775-3.16486-1.77179,3.16486.00917Zm-3.80394-4.32436h3.3071l-3.3071,1.85163Zm3.80394-.775-3.16486-1.77195,3.16486.00935Zm-3.80394-4.32452H37.924l-3.30692,1.85161Zm3.80394-.775-3.165-1.772,3.165.00936Zm-3.80394-4.3247H37.924l-3.30692,1.85144Zm3.80394-.77469-3.16523-1.77232,3.16523.00936Zm-3.80394-4.32461H37.9236l-3.30655,1.85136Zm3.80394-.77466L35.2556,51.59849l3.16539.00927Zm-3.80394-2.47354V49.20955h3.01416ZM38.421,95.48638m-3.80394-7.987,3.30745,1.85182H34.61705Zm0-5.09937,3.30727,1.85161H34.61705Zm0-5.09939,3.3071,1.85163h-3.3071Zm0-5.09955L37.924,74.05272H34.61705Zm0-5.09939L37.924,68.95316H34.61705Zm0-5.09956,3.30655,1.85145H34.61705Zm0-5.09939,3.30655,1.8511H34.61705Zm0-5.09946,3.3062,1.85126h-3.3062ZM10.60583,34.78373h2.80863v.3h-.0543a1.63435,1.63435,0,0,0-1.36593.73627h-1.3884ZM29.09489,35.82H26.44954V34.78373h2.64535Zm.49075-1.03631h3.05427V35.82H29.58564ZM15.51838,36.14721h.9356l-.831.56258A1.63558,1.63558,0,0,0,15.51838,36.14721Zm-1.6132-1.06344v-.3h2.64536V35.82H15.35311a1.63435,1.63435,0,0,0-1.36593-.73627Zm5.78146-.3V35.82H17.52159l1.53117-1.03631Zm.49072,0h2.64536V35.82H20.17736Zm3.1361,0h2.64536V35.82H23.31346Zm5.78143,1.36348v1.22721H26.44954V36.14721Zm-3.13607,1.22721H23.31346V36.14721h2.64536Zm-3.1361,0H20.17736V36.14721h2.64536Zm-5.78144,0V36.14721h2.64536v1.22721Zm-.49074,0h-.92715v-.26991l.92715-.62741Zm1.91834-2.59069-1.4276.96608v-.96608Zm1.30929-.49083L35.66972,23.53839l.251,2.07839L34.7645,36.48H33.43076a.327.327,0,0,0-.29994.197V34.2929Zm15.39777,5.48123v-.96061l.74248.74375-.18685.21686Zm1.65272,0-.24112-.2414.91941-1.0669h.77091v1.3083Zm-.5889-.58981-.71731-.71849h1.33643ZM35.459,34.59024,37.21079,36.48H35.25794Zm.538-5.05345,1.47,1.72351-1.87175,2.04952Zm.96133-4.02305-.51717-.14862.18235-1.714.14655.025Zm-.62362.84992.74194,1.02786-.948.90936Zm.7281.16976-.43606-.60438.38553.11086Zm.40729,3.97378-1.31971-1.54709,1.05719-1.01419ZM38.082,36.48h-.20194L35.6057,34.02632l2.00052-2.19041Zm36.63991,1.261-2.71322-.04567,1.07-1.77116ZM70.778,37.67463l-2.30955-.03894,1.01563-1.7145Zm-3.49907-.0589-2.319-.039,1.14709-1.70614Zm-3.539-.05961-2.16479-.0364L62.61734,35.844ZM60.3461,37.499,57.832,37.45678l1.253-1.71156Zm-3.77192-.06349-2.431-.0409,1.26927-1.69141Zm-3.60031-.0606-1.80766-.03038,1.03839-1.584Zm-3.00977-.05062-2.12072-.03569,1.05744-1.63386Zm-3.27436-.05511-2.04943-.03444,1.144-1.61254Zm-4.49861-1.82906,1.19977,1.77358-2.49772-.04208Zm.57274-.32143,2.54986.03543L44.021,36.97673Zm3.5173.049,2.136.02967L47.271,36.96819Zm3.113.04326,2.36644.0329-1.18978,1.81484Zm3.29542.04585,2.21648.03084-1.34669,1.79444Zm3.24181.045,2.64014.03677-1.36519,1.86457Zm3.67781.05117,2.521.03506L60.9727,37.24926Zm6.00109.08352L64.356,37.30212,63.11,35.40177Zm1.00314.01394,2.36925.03291-1.10015,1.85719Zm3.3714.04692,2.56551.0357-1.14305,1.89181Zm6.7121.09334-1.21146,1.86608h-.1382L73.62089,35.548Zm4.27327.05951-1.284,1.97383-1.88965-2.01806Zm.52634.39094,1.55178,1.83985L81.542,37.85571a.72615.72615,0,0,0-1.01194-.32881ZM77.98832,37.796v-.01195a.32726.32726,0,0,0-.32727-.3272H76.26553l.96943-1.493,1.73087,1.84848ZM39.7301,37.15216v-.34491a.32731.32731,0,0,0-.32729-.32726h-.82734L37.48593,25.8464l.16218-2.3339a.34215.34215,0,0,0,.16867-.13243L62.06736,34.30369l-.01825.03075a5.84183,5.84183,0,0,0-.346.72045l-19.44763-.27053L42.055,34.7788l-1.76767,2.3827Zm-7.09019.22226H29.58564V36.14721h3.05427Zm-22.03408,0V36.14721H11.829a1.62746,1.62746,0,0,0-.105.57274v.65447Z"/></g></svg>